<svg xmlns="http://www.w3.org/2000/svg" xmlns:xlink="http://www.w3.org/1999/xlink" xmlns:inkscape="http://www.inkscape.org/namespaces/inkscape" version="1.1" width="474.14" height="102.640018" viewBox="0 0 474.14 102.640018">
<defs>
<clipPath id="clip_0">
<path transform="matrix(1,0,0,-1,-71.68,464.5)" d="M71.68 361.86H545.82V464.5H71.68Z"/>
</clipPath>
</defs>
<path transform="matrix(.51701,0,0,-.51701,37.809358,25.964407)" d="M42.43672 28.3468H-42.43672C-44.63766 28.3468-46.42183 26.56264-46.42183 24.3617V-24.3617C-46.42183-26.56264-44.63766-28.3468-42.43672-28.3468H42.43672C44.63766-28.3468 46.42183-26.56264 46.42183-24.3617V24.3617C46.42183 26.56264 44.63766 28.3468 42.43672 28.3468ZM-46.42183-28.3468" fill="#7f807f" fill-opacity=".35"/>
<path transform="matrix(.51701,0,0,-.51701,36.264104,24.419152)" d="M42.43672 28.3468H-42.43672C-44.63766 28.3468-46.42183 26.56264-46.42183 24.3617V-24.3617C-46.42183-26.56264-44.63766-28.3468-42.43672-28.3468H42.43672C44.63766-28.3468 46.42183-26.56264 46.42183-24.3617V24.3617C46.42183 26.56264 44.63766 28.3468 42.43672 28.3468ZM-46.42183-28.3468" fill="#b7cbf2"/>
<path transform="matrix(.51701,0,0,-.51701,36.264104,24.419152)" stroke-width=".99628" stroke-linecap="butt" stroke-miterlimit="10" stroke-linejoin="miter" fill="none" stroke="#4c4d4c" d="M42.43672 28.3468H-42.43672C-44.63766 28.3468-46.42183 26.56264-46.42183 24.3617V-24.3617C-46.42183-26.56264-44.63766-28.3468-42.43672-28.3468H42.43672C44.63766-28.3468 46.42183-26.56264 46.42183-24.3617V24.3617C46.42183 26.56264 44.63766 28.3468 42.43672 28.3468ZM-46.42183-28.3468"/>
<text xml:space="preserve" transform="matrix(.51701 0 -0 .51701 -31.260502 285.88404)" font-size="9.9626" font-family="CMSSBX10" font-weight="bold"><tspan y="-518.455" x="96.41 103.71259 106.263019 111.852039 116.942928 126.07863 131.85694 136.94782 142.17818 146.20307 151.79209 155.49817 160.58905">VideoFeatures</tspan></text>
<text xml:space="preserve" transform="matrix(.51701 0 -0 .51701 -31.260502 285.88404)" font-size="9.9626" font-family="CMBX10" font-weight="bold"><tspan y="-503.51103" x="110.524">v</tspan></text>
<text xml:space="preserve" transform="matrix(.51701 0 -0 .51701 -31.260502 285.88404)" font-size="9.9626" font-family="CMSY10" font-style="italic"><tspan y="-503.51103" x="122.33">&#x2208;</tspan></text>
<text xml:space="preserve" transform="matrix(.51701 0 -0 .51701 -31.260502 285.88404)" font-size="9.9626" font-family="MSBM10"><tspan y="-503.51103" x="134.572">R</tspan></text>
<text xml:space="preserve" transform="matrix(.51701 0 -0 .51701 -31.260502 285.88404)" font-size="6.9738" font-family="CMMI7" font-style="italic"><tspan y="-507.127" x="141.768">d</tspan></text>
<text xml:space="preserve" transform="matrix(.51701 0 -0 .51701 -31.260502 285.88404)" font-size="4.9813" font-family="CMMI5" font-style="italic"><tspan y="-506.131" x="145.91501">v</tspan></text>
<text xml:space="preserve" transform="matrix(.51701 0 -0 .51701 -31.260502 285.88404)" font-size="9.9626" font-family="CMSSBX10" font-weight="bold"><tspan y="-488.56803" x="89.43001 93.694 99.47231 104.702678 109.57439 112.12481 117.35517 123.56187 131.48213 136.46343 142.05245 147.2828 155.92038 158.47081 163.34253 167.54676">(FacialDynamics)</tspan></text>
<path transform="matrix(.51701,0,0,-.51701,37.809358,25.964407)" d="M42.43672-63.35918H-42.43672C-44.63766-63.35918-46.42183-65.14334-46.42183-67.34428V-118.4302C-46.42183-120.63115-44.63766-122.41531-42.43672-122.41531H42.43672C44.63766-122.41531 46.42183-120.63115 46.42183-118.4302V-67.34428C46.42183-65.14334 44.63766-63.35918 42.43672-63.35918ZM-46.42183-122.41531" fill="#7f807f" fill-opacity=".35"/>
<path transform="matrix(.51701,0,0,-.51701,36.264104,24.419152)" d="M42.43672-63.35918H-42.43672C-44.63766-63.35918-46.42183-65.14334-46.42183-67.34428V-118.4302C-46.42183-120.63115-44.63766-122.41531-42.43672-122.41531H42.43672C44.63766-122.41531 46.42183-120.63115 46.42183-118.4302V-67.34428C46.42183-65.14334 44.63766-63.35918 42.43672-63.35918ZM-46.42183-122.41531" fill="#ffdba6"/>
<path transform="matrix(.51701,0,0,-.51701,36.264104,24.419152)" stroke-width=".99628" stroke-linecap="butt" stroke-miterlimit="10" stroke-linejoin="miter" fill="none" stroke="#4c4d4c" d="M42.43672-63.35918H-42.43672C-44.63766-63.35918-46.42183-65.14334-46.42183-67.34428V-118.4302C-46.42183-120.63115-44.63766-122.41531-42.43672-122.41531H42.43672C44.63766-122.41531 46.42183-120.63115 46.42183-118.4302V-67.34428C46.42183-65.14334 44.63766-63.35918 42.43672-63.35918ZM-46.42183-122.41531"/>
<text xml:space="preserve" transform="matrix(.51701 0 -0 .51701 -31.260502 285.88404)" font-size="9.9626" font-family="CMSSBX10" font-weight="bold"><tspan y="-431.547" x="96.909 100.61508 107.61879 114.6225 125.58136 131.35967 136.45056 141.68093 145.70581 151.29483 155.00092 160.0918">rPPGFeatures</tspan></text>
<text xml:space="preserve" transform="matrix(.51701 0 -0 .51701 -31.260502 285.88404)" font-size="9.9626" font-family="CMBX10" font-weight="bold"><tspan y="-416.603" x="110.493999">p</tspan></text>
<text xml:space="preserve" transform="matrix(.51701 0 -0 .51701 -31.260502 285.88404)" font-size="9.9626" font-family="CMSY10" font-style="italic"><tspan y="-416.603" x="122.45599">&#x2208;</tspan></text>
<text xml:space="preserve" transform="matrix(.51701 0 -0 .51701 -31.260502 285.88404)" font-size="9.9626" font-family="MSBM10"><tspan y="-416.603" x="134.694">R</tspan></text>
<text xml:space="preserve" transform="matrix(.51701 0 -0 .51701 -31.260502 285.88404)" font-size="6.9738" font-family="CMMI7" font-style="italic"><tspan y="-420.218" x="141.889">d</tspan></text>
<text xml:space="preserve" transform="matrix(.51701 0 -0 .51701 -31.260502 285.88404)" font-size="4.9813" font-family="CMMI5" font-style="italic"><tspan y="-419.222" x="146.037">p</tspan></text>
<text xml:space="preserve" transform="matrix(.51701 0 -0 .51701 -31.260502 285.88404)" font-size="9.9626" font-family="CMSSBX10" font-weight="bold"><tspan y="-401.659" x="99.226 103.48999 110.4937 116.08272 121.06402 125.268238 127.81866 133.29808 135.84851 141.32794 146.80738 149.3578 154.22953 159.45989">(Physiological</tspan><tspan y="-389.704" x="103.184 110.48659 113.03701 118.51644 127.154018 132.07555 135.78163 140.7729 145.8638 149.56989 153.77411">Biomarkers)</tspan></text>
<path transform="matrix(.51701,0,0,-.51701,37.809358,25.964407)" d="M198.63959-11.33856H113.76613C111.56519-11.33856 109.78102-13.12273 109.78102-15.32367V-64.04707C109.78102-66.24802 111.56519-68.03218 113.76613-68.03218H198.63959C200.84053-68.03218 202.6247-66.24802 202.6247-64.04707V-15.32367C202.6247-13.12273 200.84053-11.33856 198.63959-11.33856ZM109.78102-68.03218" fill="#7f807f" fill-opacity=".35"/>
<path transform="matrix(.51701,0,0,-.51701,36.264104,24.419152)" d="M198.63959-11.33856H113.76613C111.56519-11.33856 109.78102-13.12273 109.78102-15.32367V-64.04707C109.78102-66.24802 111.56519-68.03218 113.76613-68.03218H198.63959C200.84053-68.03218 202.6247-66.24802 202.6247-64.04707V-15.32367C202.6247-13.12273 200.84053-11.33856 198.63959-11.33856ZM109.78102-68.03218" fill="#c0e3c1"/>
<path transform="matrix(.51701,0,0,-.51701,36.264104,24.419152)" stroke-width=".99628" stroke-linecap="butt" stroke-miterlimit="10" stroke-linejoin="miter" fill="none" stroke="#4c4d4c" d="M198.63959-11.33856H113.76613C111.56519-11.33856 109.78102-13.12273 109.78102-15.32367V-64.04707C109.78102-66.24802 111.56519-68.03218 113.76613-68.03218H198.63959C200.84053-68.03218 202.6247-66.24802 202.6247-64.04707V-15.32367C202.6247-13.12273 200.84053-11.33856 198.63959-11.33856ZM109.78102-68.03218"/>
<text xml:space="preserve" transform="matrix(.51701 0 -0 .51701 -31.260506 285.88404)" font-size="9.9626" font-family="CMSSBX10" font-weight="bold"><tspan y="-477.276" x="256.857 262.6353 267.7262 272.95658 276.98149 282.5705 286.27659 295.02375 302.02748 307.5069 313.09593">FeatureCon-</tspan><tspan y="-465.321" x="262.965 267.8367 273.06709 277.09199 282.18287 287.77189 293.00227 297.02717 299.57759 305.057">catenation</tspan></text>
<text xml:space="preserve" transform="matrix(.51701 0 -0 .51701 -31.260506 285.88404)" font-size="9.9626" font-family="CMBX10" font-weight="bold"><tspan y="-450.377" x="263.879">z</tspan></text>
<text xml:space="preserve" transform="matrix(.51701 0 -0 .51701 -31.260506 285.88404)" font-size="9.9626" font-family="CMR10"><tspan y="-450.377" x="274.212 287.20326">=[</tspan></text>
<text xml:space="preserve" transform="matrix(.51701 0 -0 .51701 -31.260506 285.88404)" font-size="9.9626" font-family="CMBX10" font-weight="bold"><tspan y="-450.377" x="289.969">v</tspan></text>
<text xml:space="preserve" transform="matrix(.51701 0 -0 .51701 -31.260506 285.88404)" font-size="9.9626" font-family="CMR10"><tspan y="-450.377" x="296.175">;</tspan></text>
<text xml:space="preserve" transform="matrix(.51701 0 -0 .51701 -31.260506 285.88404)" font-size="9.9626" font-family="CMBX10" font-weight="bold"><tspan y="-450.377" x="300.602">p</tspan></text>
<text xml:space="preserve" transform="matrix(.51701 0 -0 .51701 -31.260506 285.88404)" font-size="9.9626" font-family="CMR10"><tspan y="-450.377" x="306.96699">]</tspan></text>
<path transform="matrix(.51701,0,0,-.51701,37.809358,25.964407)" d="M349.1732-25.51195H264.2997C262.09877-25.51195 260.3146-27.29611 260.3146-29.49706V-78.22046C260.3146-80.4214 262.09877-82.20557 264.2997-82.20557H349.1732C351.3741-82.20557 353.1583-80.4214 353.1583-78.22046V-29.49706C353.1583-27.29611 351.3741-25.51195 349.1732-25.51195ZM260.3146-82.20557" fill="#7f807f" fill-opacity=".35"/>
<path transform="matrix(.51701,0,0,-.51701,36.264104,24.419152)" d="M349.1732-25.51195H264.2997C262.09877-25.51195 260.3146-27.29611 260.3146-29.49706V-78.22046C260.3146-80.4214 262.09877-82.20557 264.2997-82.20557H349.1732C351.3741-82.20557 353.1583-80.4214 353.1583-78.22046V-29.49706C353.1583-27.29611 351.3741-25.51195 349.1732-25.51195ZM260.3146-82.20557" fill="#ddb3e4"/>
<path transform="matrix(.51701,0,0,-.51701,36.264104,24.419152)" stroke-width=".99628" stroke-linecap="butt" stroke-miterlimit="10" stroke-linejoin="miter" fill="none" stroke="#4c4d4c" d="M349.1732-25.51195H264.2997C262.09877-25.51195 260.3146-27.29611 260.3146-29.49706V-78.22046C260.3146-80.4214 262.09877-82.20557 264.2997-82.20557H349.1732C351.3741-82.20557 353.1583-80.4214 353.1583-78.22046V-29.49706C353.1583-27.29611 351.3741-25.51195 349.1732-25.51195ZM260.3146-82.20557"/>
<text xml:space="preserve" transform="matrix(.51701 0 -0 .51701 -31.260499 285.884)" font-size="9.9626" font-family="CMSSBX10" font-weight="bold"><tspan y="-469.081" x="407.232 413.92689 419.10743 426.21076 431.30165 438.664 445.05003 448.7561 453.98649 459.5755 463.77973">PowerTrans-</tspan><tspan y="-457.125" x="415.469 418.81645 423.98704 427.6931 436.3307 441.56108 445.58598 448.13639 453.6158">formation</tspan></text>
<text xml:space="preserve" transform="matrix(.51701 0 -0 .51701 -31.260499 285.884)" font-size="9.9626" font-family="CMBX10" font-weight="bold"><tspan y="-442.181" x="426.158">z</tspan></text>
<text xml:space="preserve" transform="matrix(.51701 0 -0 .51701 -31.260499 285.884)" font-size="6.9738" font-family="CMSY7" font-style="italic"><tspan y="-445.797" x="431.25">&#x2032;</tspan></text>
<text xml:space="preserve" transform="matrix(.51701 0 -0 .51701 -31.260499 285.884)" font-size="9.9626" font-family="CMR10"><tspan y="-442.181" x="440.77">=</tspan></text>
<text xml:space="preserve" transform="matrix(.51701 0 -0 .51701 -31.260499 285.884)" font-size="9.9626" font-family="CMSSBX10" font-weight="bold"><tspan y="-430.226" x="402.05699 408.443 413.53388 419.0133 422.6696 427.84019 433.3196 438.90864 444.49766 448.70188 454.1813">Yeo-Johnson</tspan></text>
<text xml:space="preserve" transform="matrix(.51701 0 -0 .51701 -31.260499 285.884)" font-size="9.9626" font-family="CMR10"><tspan y="-430.226" x="459.779">(</tspan></text>
<text xml:space="preserve" transform="matrix(.51701 0 -0 .51701 -31.260499 285.884)" font-size="9.9626" font-family="CMBX10" font-weight="bold"><tspan y="-430.226" x="463.654">z</tspan></text>
<text xml:space="preserve" transform="matrix(.51701 0 -0 .51701 -31.260499 285.884)" font-size="9.9626" font-family="CMR10"><tspan y="-430.226" x="468.746">)</tspan></text>
<path transform="matrix(.51701,0,0,-.51701,37.809358,25.964407)" d="M506.07695-22.59935H414.8333C412.6324-22.59935 410.8482-24.38351 410.8482-26.58446V-103.81017C410.8482-106.01111 412.6324-107.79527 414.8333-107.79527H506.07695C508.2779-107.79527 510.06208-106.01111 510.06208-103.81017V-26.58446C510.06208-24.38351 508.2779-22.59935 506.07695-22.59935ZM410.8482-107.79527" fill="#666666" fill-opacity=".4"/>
<path transform="matrix(.51701,0,0,-.51701,36.264104,24.419152)" d="M506.07695-22.59935H414.8333C412.6324-22.59935 410.8482-24.38351 410.8482-26.58446V-103.81017C410.8482-106.01111 412.6324-107.79527 414.8333-107.79527H506.07695C508.2779-107.79527 510.06208-106.01111 510.06208-103.81017V-26.58446C510.06208-24.38351 508.2779-22.59935 506.07695-22.59935ZM410.8482-107.79527" fill="#f7a9a8"/>
<path transform="matrix(.51701,0,0,-.51701,36.264104,24.419152)" stroke-width=".99628" stroke-linecap="butt" stroke-miterlimit="10" stroke-linejoin="miter" fill="none" stroke="#404040" d="M506.07695-22.59935H414.8333C412.6324-22.59935 410.8482-24.38351 410.8482-26.58446V-103.81017C410.8482-106.01111 412.6324-107.79527 414.8333-107.79527H506.07695C508.2779-107.79527 510.06208-106.01111 510.06208-103.81017V-26.58446C510.06208-24.38351 508.2779-22.59935 506.07695-22.59935ZM410.8482-107.79527"/>
<text xml:space="preserve" transform="matrix(.51701 0 -0 .51701 -31.260483 285.884)" font-size="9.9626" font-family="CMSSBX10" font-weight="bold"><tspan y="-472.306" x="555.688 563.6083 569.19729 573.22219 575.7726 584.41018 586.9606 591.70278 596.79367 606.02896 612.1161 619.42868">OptimizedSVR</tspan></text>
<text xml:space="preserve" transform="matrix(.51701 0 -0 .51701 -31.260483 285.884)" font-size="9.9626" font-family="CMR10"><tspan y="-456.366" x="552.81399">&#x02c6;</tspan></text>
<text xml:space="preserve" transform="matrix(.51701 0 -0 .51701 -31.260483 285.884)" font-size="9.9626" font-family="CMMI10" font-style="italic"><tspan y="-456.366" x="552.12997">y</tspan></text>
<text xml:space="preserve" transform="matrix(.51701 0 -0 .51701 -31.260483 285.884)" font-size="9.9626" font-family="CMR10"><tspan y="-456.366" x="560.9509">=</tspan></text>
<text xml:space="preserve" transform="matrix(.51701 0 -0 .51701 -31.260483 285.884)" font-size="9.9626" font-family="CMMI10" font-style="italic"><tspan y="-456.366" x="572.27896 578.9638 586.98367">SVR</tspan></text>
<text xml:space="preserve" transform="matrix(.51701 0 -0 .51701 -31.260483 285.884)" font-size="9.9626" font-family="CMR10"><tspan y="-456.366" x="594.62997">(</tspan></text>
<text xml:space="preserve" transform="matrix(.51701 0 -0 .51701 -31.260483 285.884)" font-size="9.9626" font-family="CMBX10" font-weight="bold"><tspan y="-456.366" x="598.50399">z</tspan></text>
<text xml:space="preserve" transform="matrix(.51701 0 -0 .51701 -31.260483 285.884)" font-size="6.9738" font-family="CMSY7" font-style="italic"><tspan y="-459.981" x="603.59597">&#x2032;</tspan></text>
<text xml:space="preserve" transform="matrix(.51701 0 -0 .51701 -31.260483 285.884)" font-size="9.9626" font-family="CMMI10" font-style="italic"><tspan y="-456.366" x="606.3909 610.8243">,C</tspan></text>
<text xml:space="preserve" transform="matrix(.51701 0 -0 .51701 -31.260483 285.884)" font-size="9.9626" font-family="CMR10"><tspan y="-456.366" x="622.23098">=</tspan><tspan y="-444.411" x="574.746 579.7273">25</tspan></text>
<text xml:space="preserve" transform="matrix(.51701 0 -0 .51701 -31.260483 285.884)" font-size="9.9626" font-family="CMMI10" font-style="italic"><tspan y="-444.411" x="584.709 589.14236">,&#x03f5;</tspan></text>
<text xml:space="preserve" transform="matrix(.51701 0 -0 .51701 -31.260483 285.884)" font-size="9.9626" font-family="CMR10"><tspan y="-444.411" x="599.615">=</tspan><tspan y="-432.45603" x="556.24899">0</tspan></text>
<text xml:space="preserve" transform="matrix(.51701 0 -0 .51701 -31.260483 285.884)" font-size="9.9626" font-family="CMMI10" font-style="italic"><tspan y="-432.45603" x="561.23">.</tspan></text>
<text xml:space="preserve" transform="matrix(.51701 0 -0 .51701 -31.260483 285.884)" font-size="9.9626" font-family="CMR10"><tspan y="-432.45603" x="563.998 568.9793">01</tspan></text>
<text xml:space="preserve" transform="matrix(.51701 0 -0 .51701 -31.260483 285.884)" font-size="9.9626" font-family="CMMI10" font-style="italic"><tspan y="-432.45603" x="573.95999 578.3933">,&#x03b3;</tspan></text>
<text xml:space="preserve" transform="matrix(.51701 0 -0 .51701 -31.260483 285.884)" font-size="9.9626" font-family="CMR10"><tspan y="-432.45603" x="588.199">=</tspan></text>
<text xml:space="preserve" transform="matrix(.51701 0 -0 .51701 -31.260483 285.884)" font-size="9.9626" font-family="CMSSBX10" font-weight="bold"><tspan y="-432.45603" x="600.047 604.2512 609.1229 614.3533 616.9037">scale</tspan></text>
<text xml:space="preserve" transform="matrix(.51701 0 -0 .51701 -31.260483 285.884)" font-size="9.9626" font-family="CMR10"><tspan y="-432.45603" x="621.987">)</tspan></text>
<text xml:space="preserve" transform="matrix(.51701 0 -0 .51701 -31.260483 285.884)" font-size="10.9091" font-family="CMSSBX10" font-weight="bold"><tspan y="-416.515" x="561.944 567.944 573.944 583.5985 590.9294 596.3294 600.3876 606.11489 615.57308">350Params</tspan><tspan y="-404.56004" x="569.26199 578.9165 585.582 591.92019 600.5929 608.26199">/FLOPs</tspan></text>
<path transform="matrix(.51701,0,0,-.51701,37.809358,25.964407)" d="M656.61056-41.2792H571.73709C569.53616-41.2792 567.75198-43.06337 567.75198-45.26431V-107.8074C567.75198-110.00835 569.53616-111.79251 571.73709-111.79251H656.61056C658.8115-111.79251 660.59567-110.00835 660.59567-107.8074V-45.26431C660.59567-43.06337 658.8115-41.2792 656.61056-41.2792ZM567.75198-111.79251" fill="#7f807f" fill-opacity=".35"/>
<path transform="matrix(.51701,0,0,-.51701,36.264104,24.419152)" d="M656.61056-41.2792H571.73709C569.53616-41.2792 567.75198-43.06337 567.75198-45.26431V-107.8074C567.75198-110.00835 569.53616-111.79251 571.73709-111.79251H656.61056C658.8115-111.79251 660.59567-110.00835 660.59567-107.8074V-45.26431C660.59567-43.06337 658.8115-41.2792 656.61056-41.2792ZM567.75198-111.79251" fill="#d8dfe2"/>
<path transform="matrix(.51701,0,0,-.51701,36.264104,24.419152)" stroke-width=".99628" stroke-linecap="butt" stroke-miterlimit="10" stroke-linejoin="miter" fill="none" stroke="#4c4d4c" d="M656.61056-41.2792H571.73709C569.53616-41.2792 567.75198-43.06337 567.75198-45.26431V-107.8074C567.75198-110.00835 569.53616-111.79251 571.73709-111.79251H656.61056C658.8115-111.79251 660.59567-110.00835 660.59567-107.8074V-45.26431C660.59567-43.06337 658.8115-41.2792 656.61056-41.2792ZM567.75198-111.79251"/>
<text xml:space="preserve" transform="matrix(.51701 0 -0 .51701 -31.260499 285.88404)" font-size="9.9626" font-family="CMSSBX10" font-weight="bold"><tspan y="-453.627" x="726.528 734.4483 740.0373 744.0622 746.6126 755.2502 760.4805">Optimal</tspan><tspan y="-441.67103" x="721.57406 731.61636 736.7072 739.2576 744.73709 750.32608 754.35098 756.90139 762.49038">Weighting</tspan></text>
<text xml:space="preserve" transform="matrix(.51701 0 -0 .51701 -31.260499 285.88404)" font-size="9.9626" font-family="CMR10"><tspan y="-425.73103" x="703.30209">&#x02c6;</tspan></text>
<text xml:space="preserve" transform="matrix(.51701 0 -0 .51701 -31.260499 285.88404)" font-size="9.9626" font-family="CMMI10" font-style="italic"><tspan y="-425.73103" x="702.61807">y</tspan></text>
<text xml:space="preserve" transform="matrix(.51701 0 -0 .51701 -31.260499 285.88404)" font-size="6.9738" font-family="CMMI7" font-style="italic"><tspan y="-424.23704" x="707.502 712.1675 714.9849 719.90847 724.2322">final</tspan></text>
<text xml:space="preserve" transform="matrix(.51701 0 -0 .51701 -31.260499 285.88404)" font-size="9.9626" font-family="CMR10"><tspan y="-425.73103" x="730.10507">=</tspan></text>
<text xml:space="preserve" transform="matrix(.51701 0 -0 .51701 -31.260499 285.88404)" font-size="9.9626" font-family="CMMI10" font-style="italic"><tspan y="-425.73103" x="740.668">w</tspan></text>
<text xml:space="preserve" transform="matrix(.51701 0 -0 .51701 -31.260499 285.88404)" font-size="6.9738" font-family="CMSY7" font-style="italic"><tspan y="-429.34703" x="748.06808">&#x2217;</tspan></text>
<text xml:space="preserve" transform="matrix(.51701 0 -0 .51701 -31.260499 285.88404)" font-size="9.9626" font-family="CMR10"><tspan y="-425.73103" x="753.33206">&#x02c6;</tspan></text>
<text xml:space="preserve" transform="matrix(.51701 0 -0 .51701 -31.260499 285.88404)" font-size="9.9626" font-family="CMMI10" font-style="italic"><tspan y="-425.73103" x="752.648">y</tspan></text>
<text xml:space="preserve" transform="matrix(.51701 0 -0 .51701 -31.260499 285.88404)" font-size="6.9738" font-family="CMMI7" font-style="italic"><tspan y="-424.23704" x="757.533 761.7661 764.58358 768.733 772.51278">video</tspan></text>
<text xml:space="preserve" transform="matrix(.51701 0 -0 .51701 -31.260499 285.88404)" font-size="9.9626" font-family="CMR10"><tspan y="-425.73103" x="779.177">+</tspan><tspan y="-413.77604" x="714.868 718.7434">(1</tspan></text>
<text xml:space="preserve" transform="matrix(.51701 0 -0 .51701 -31.260499 285.88404)" font-size="9.9626" font-family="CMSY10" font-style="italic"><tspan y="-413.77604" x="726.574">&#x2212;</tspan></text>
<text xml:space="preserve" transform="matrix(.51701 0 -0 .51701 -31.260499 285.88404)" font-size="9.9626" font-family="CMMI10" font-style="italic"><tspan y="-413.77604" x="737.17398">w</tspan></text>
<text xml:space="preserve" transform="matrix(.51701 0 -0 .51701 -31.260499 285.88404)" font-size="6.9738" font-family="CMSY7" font-style="italic"><tspan y="-417.39103" x="744.57498">&#x2217;</tspan></text>
<text xml:space="preserve" transform="matrix(.51701 0 -0 .51701 -31.260499 285.88404)" font-size="9.9626" font-family="CMR10"><tspan y="-413.77604" x="749.15499 753.71786">)&#x02c6;</tspan></text>
<text xml:space="preserve" transform="matrix(.51701 0 -0 .51701 -31.260499 285.88404)" font-size="9.9626" font-family="CMMI10" font-style="italic"><tspan y="-413.77604" x="753.029">y</tspan></text>
<text xml:space="preserve" transform="matrix(.51701 0 -0 .51701 -31.260499 285.88404)" font-size="6.9738" font-family="CMMI7" font-style="italic"><tspan y="-412.28205" x="757.91299 761.82528 765.9328 770.04037">rppg</tspan></text>
<text xml:space="preserve" transform="matrix(.51701 0 -0 .51701 -31.260499 285.88404)" font-size="9.9626" font-family="CMMI10" font-style="italic"><tspan y="-397.83604" x="720.92599">w</tspan></text>
<text xml:space="preserve" transform="matrix(.51701 0 -0 .51701 -31.260499 285.88404)" font-size="6.9738" font-family="CMSY7" font-style="italic"><tspan y="-401.45103" x="728.32699">&#x2217;</tspan></text>
<text xml:space="preserve" transform="matrix(.51701 0 -0 .51701 -31.260499 285.88404)" font-size="9.9626" font-family="CMR10"><tspan y="-397.83604" x="738.032 750.9037">=0</tspan></text>
<text xml:space="preserve" transform="matrix(.51701 0 -0 .51701 -31.260499 285.88404)" font-size="9.9626" font-family="CMMI10" font-style="italic"><tspan y="-397.83604" x="755.88699">.</tspan></text>
<text xml:space="preserve" transform="matrix(.51701 0 -0 .51701 -31.260499 285.88404)" font-size="9.9626" font-family="CMR10"><tspan y="-397.83604" x="758.65499 763.6363">98</tspan></text>
<path transform="matrix(.51701,0,0,-.51701,37.809358,25.964407)" d="M807.1441-59.52759H722.2707C720.0697-59.52759 718.2856-61.31177 718.2856-63.5127V-112.23611C718.2856-114.43706 720.0697-116.22122 722.2707-116.22122H807.1441C809.3451-116.22122 811.1292-114.43706 811.1292-112.23611V-63.5127C811.1292-61.31177 809.3451-59.52759 807.1441-59.52759ZM718.2856-116.22122" fill="#7f807f" fill-opacity=".35"/>
<path transform="matrix(.51701,0,0,-.51701,36.264104,24.419152)" d="M807.1441-59.52759H722.2707C720.0697-59.52759 718.2856-61.31177 718.2856-63.5127V-112.23611C718.2856-114.43706 720.0697-116.22122 722.2707-116.22122H807.1441C809.3451-116.22122 811.1292-114.43706 811.1292-112.23611V-63.5127C811.1292-61.31177 809.3451-59.52759 807.1441-59.52759ZM718.2856-116.22122" fill="#c3d4f4"/>
<path transform="matrix(.51701,0,0,-.51701,36.264104,24.419152)" stroke-width=".99628" stroke-linecap="butt" stroke-miterlimit="10" stroke-linejoin="miter" fill="none" stroke="#4c4d4c" d="M807.1441-59.52759H722.2707C720.0697-59.52759 718.2856-61.31177 718.2856-63.5127V-112.23611C718.2856-114.43706 720.0697-116.22122 722.2707-116.22122H807.1441C809.3451-116.22122 811.1292-114.43706 811.1292-112.23611V-63.5127C811.1292-61.31177 809.3451-59.52759 807.1441-59.52759ZM718.2856-116.22122"/>
<text xml:space="preserve" transform="matrix(.51701 0 -0 .51701 -31.260499 285.884)" font-size="9.9626" font-family="CMSSBX10" font-weight="bold"><tspan y="-423.788" x="853.654 859.74118 862.29159 867.88058 873.1109 879.31759 886.6202 894.54049 897.8381 901.4943 905.0908 912.0447 918.13186 923.00357 928.17416 931.88027">FinalBDI-IIScore</tspan></text>
<text xml:space="preserve" transform="matrix(.51701 0 -0 .51701 -31.260499 285.884)" font-size="9.9626" font-family="CMR10"><tspan y="-407.848" x="883.64999">&#x02c6;</tspan></text>
<text xml:space="preserve" transform="matrix(.51701 0 -0 .51701 -31.260499 285.884)" font-size="9.9626" font-family="CMMI10" font-style="italic"><tspan y="-407.848" x="882.96597">y</tspan></text>
<text xml:space="preserve" transform="matrix(.51701 0 -0 .51701 -31.260499 285.884)" font-size="6.9738" font-family="CMMI7" font-style="italic"><tspan y="-406.354" x="887.85098 892.5164 895.33389 900.2574 904.5811">final</tspan></text>
<path transform="matrix(.51701,0,0,-.51701,36.264104,24.419152)" stroke-width=".99628" stroke-linecap="butt" stroke-miterlimit="10" stroke-linejoin="miter" fill="none" stroke="#000000" d="M46.91997 0 102.52902-35.38742"/>
<path transform="matrix(.43615479,.27755679,.27755679,-.43615479,89.27261,42.71479)" d="M5.70958 0C5.00842 .15703 1.92633 1.0469 0 2.01529V-2.01529C1.92633-1.0469 5.00842-.15703 5.70958 0Z"/>
<path transform="matrix(.43615479,.27755679,.27755679,-.43615479,89.27261,42.71479)" stroke-width=".99628" stroke-linecap="butt" stroke-miterlimit="10" stroke-linejoin="miter" fill="none" stroke="#000000" d="M5.70958 0C5.00842 .15703 1.92633 1.0469 0 2.01529V-2.01529C1.92633-1.0469 5.00842-.15703 5.70958 0Z"/>
<path transform="matrix(.51701,0,0,-.51701,36.264104,24.419152)" stroke-width=".99628" stroke-linecap="butt" stroke-miterlimit="10" stroke-linejoin="miter" fill="none" stroke="#000000" d="M46.91997-92.88724H131.96042V-64.69952"/>
<path transform="matrix(0,-.51701,-.51701,-0,104.48895,57.869447)" d="M5.70958 0C5.00842 .15703 1.92633 1.0469 0 2.01529V-2.01529C1.92633-1.0469 5.00842-.15703 5.70958 0Z"/>
<path transform="matrix(0,-.51701,-.51701,-0,104.48895,57.869447)" stroke-width=".99628" stroke-linecap="butt" stroke-miterlimit="10" stroke-linejoin="miter" fill="none" stroke="#000000" d="M5.70958 0C5.00842 .15703 1.92633 1.0469 0 2.01529V-2.01529C1.92633-1.0469 5.00842-.15703 5.70958 0Z"/>
<path transform="matrix(.51701,0,0,-.51701,36.264104,24.419152)" stroke-width=".99628" stroke-linecap="butt" stroke-miterlimit="10" stroke-linejoin="miter" fill="none" stroke="#000000" d="M203.12284-39.68536 252.04967-51.91727"/>
<path transform="matrix(.5015721,.1253801,.1253801,-.5015721,166.57628,51.2609)" d="M5.70958 0C5.00842 .15703 1.92633 1.0469 0 2.01529V-2.01529C1.92633-1.0469 5.00842-.15703 5.70958 0Z"/>
<path transform="matrix(.5015721,.1253801,.1253801,-.5015721,166.57628,51.2609)" stroke-width=".99628" stroke-linecap="butt" stroke-miterlimit="10" stroke-linejoin="miter" fill="none" stroke="#000000" d="M5.70958 0C5.00842 .15703 1.92633 1.0469 0 2.01529V-2.01529C1.92633-1.0469 5.00842-.15703 5.70958 0Z"/>
<path transform="matrix(.51701,0,0,-.51701,36.264104,24.419152)" stroke-width=".99628" stroke-linecap="butt" stroke-miterlimit="10" stroke-linejoin="miter" fill="none" stroke="#000000" d="M353.65644-53.85876 402.4999-63.6273"/>
<path transform="matrix(.50695416,.10138565,.10138565,-.50695416,244.36057,57.3151)" d="M5.70958 0C5.00842 .15703 1.92633 1.0469 0 2.01529V-2.01529C1.92633-1.0469 5.00842-.15703 5.70958 0Z"/>
<path transform="matrix(.50695416,.10138565,.10138565,-.50695416,244.36057,57.3151)" stroke-width=".99628" stroke-linecap="butt" stroke-miterlimit="10" stroke-linejoin="miter" fill="none" stroke="#000000" d="M5.70958 0C5.00842 .15703 1.92633 1.0469 0 2.01529V-2.01529C1.92633-1.0469 5.00842-.15703 5.70958 0Z"/>
<path transform="matrix(.51701,0,0,-.51701,36.264104,24.419152)" stroke-width=".99628" stroke-linecap="butt" stroke-miterlimit="10" stroke-linejoin="miter" fill="none" stroke="#000000" d="M510.5602-65.19731 559.4037-74.96585"/>
<path transform="matrix(.50695416,.10138565,.10138565,-.50695416,325.48139,63.177244)" d="M5.70958 0C5.00842 .15703 1.92633 1.0469 0 2.01529V-2.01529C1.92633-1.0469 5.00842-.15703 5.70958 0Z"/>
<path transform="matrix(.50695416,.10138565,.10138565,-.50695416,325.48139,63.177244)" stroke-width=".99628" stroke-linecap="butt" stroke-miterlimit="10" stroke-linejoin="miter" fill="none" stroke="#000000" d="M5.70958 0C5.00842 .15703 1.92633 1.0469 0 2.01529V-2.01529C1.92633-1.0469 5.00842-.15703 5.70958 0Z"/>
<path transform="matrix(.51701,0,0,-.51701,36.264104,24.419152)" stroke-width=".99628" stroke-linecap="butt" stroke-miterlimit="10" stroke-linejoin="miter" fill="none" stroke="#000000" d="M661.0938-76.53586 709.9373-86.30441"/>
<path transform="matrix(.50695416,.10138565,.10138565,-.50695416,403.30879,69.0394)" d="M5.70958 0C5.00842 .15703 1.92633 1.0469 0 2.01529V-2.01529C1.92633-1.0469 5.00842-.15703 5.70958 0Z"/>
<path transform="matrix(.50695416,.10138565,.10138565,-.50695416,403.30879,69.0394)" stroke-width=".99628" stroke-linecap="butt" stroke-miterlimit="10" stroke-linejoin="miter" fill="none" stroke="#000000" d="M5.70958 0C5.00842 .15703 1.92633 1.0469 0 2.01529V-2.01529C1.92633-1.0469 5.00842-.15703 5.70958 0Z"/>
<text xml:space="preserve" transform="matrix(.51701 0 -0 .51701 -31.260499 285.88404)" font-size="10.9091" font-family="CMSSI10" font-style="italic"><tspan y="-375.835" x="485.511 492.0237 494.9837 497.9437 500.90373 505.74736 508.3546 513.19827 518.83828 523.6819 528.711 536.59829 540.07827 545.5328 550.9873 558.5582 569.46737 579.0128 584.7728 590.41287 595.2565 597.8638 604.52926 611.57656 616.42019 621.6674 624.2747 627.9075 635.33657 637.94387 646.60568 655.08206 658.11477 663.75479 667.09298 671.9366 675.6675 680.5111 686.1511 690.99478">Efficiency:&#x00a1;50KBModel,Real-TimeInference</tspan></text>
<text xml:space="preserve" transform="matrix(1 0 -0 1 -71.681 464.5)" font-size="11.9552" font-family="CMR12"><tspan y="-345.404" x="72 79.63937 82.89119 88.74924 95.25287 99.8078 109.6828 115.54085 125.54735 132.21836 138.72199 143.33669 146.5885 152.44655 163.62467 172.39978 176.95471 181.83245 188.33608 191.58789 196.14282 201.34334 206.54386 211.09879 217.60242 222.15735 232.03235 237.23287 243.09091 252.52358 259.0272 262.279 268.78263 272.03443 278.53807 289.0706 297.8457 301.0975 307.60115 312.80165 323.33418 329.19224 335.69587 346.88594 351.44087 359.403 367.36518 381.22123 384.79585 389.99635 395.8544 400.40934 406.91297 411.4679 416.6684 425.95759 432.4612 437.07594 440.32774 446.83137 457.37586 466.48573 472.98936 477.54429 480.78413 490.53956 493.79136 498.99186 504.19236 515.38247 521.88607 530.6612">Figure1:FusionArchitecturecombiningVideoandrPPGfeaturesusingOptimizedSVR</tspan><tspan y="-330.95799" x="72 77.85805 84.36168 94.7627 102.40208 107.93733 116.066867 121.26738 129.71971 137.19171 141.74665 147.60469 154.10832 158.72303 162.29763 168.15567 172.7106 182.46605 188.3241 192.87903 196.13085 201.98889 208.49253">andPowerTransformation.</tspan></text>
<text xml:space="preserve" transform="matrix(1 0 -0 1 -71.681 464.5)" font-size="11.9552" font-family="CMR12"><tspan y="-89.862979" x="302.69703">1</tspan></text>
<g clip-path="url(#clip_0)">
<g>
<path transform="matrix(1,0,0,-1,-71.68,464.5)" d="M72.18 362.36H545.32V464H72.18Z" fill="#ffffff" fill-opacity=".1" fill-rule="evenodd"/>
<path transform="matrix(1,0,0,-1,-71.68,464.5)" stroke-width="1" stroke-linecap="butt" stroke-miterlimit="10" stroke-linejoin="miter" fill="none" stroke="#00a5e4" stroke-opacity=".1" d="M72.18 362.36H545.32V464H72.18Z"/>
</g>
</g>
</svg>
