<svg xmlns="http://www.w3.org/2000/svg" xmlns:xlink="http://www.w3.org/1999/xlink" xmlns:inkscape="http://www.inkscape.org/namespaces/inkscape" version="1.1" width="496.94" height="140.12" viewBox="0 0 496.94 140.12">
<defs>
<clipPath id="clip_0">
<path transform="matrix(1,0,0,-1,-50.51,480.8)" d="M50.51 340.68H547.45V480.8H50.51Z"/>
</clipPath>
</defs>
<path transform="matrix(.48619,0,0,-.48619,51.184625,76.47647)" d="M0-91.2436V99.74773C0 104.14961 3.56833 107.71794 7.97021 107.71794H644.0064C648.4083 107.71794 651.9766 104.14961 651.9766 99.74773V-91.2436C651.9766-95.6455 648.4083-99.21382 644.0064-99.21382H7.97021C3.56833-99.21382 0-95.6455 0-91.2436ZM651.9766 107.71794" fill="#eff2f3"/>
<g>
<path transform="matrix(.48619,0,0,-.48619,51.184625,76.47647)" d="M-56.69362-8.50412C-56.69362-8.50412-53.5413 7.87483-52.95738 8.0209-51.88977 8.28778-50.15887 8.72046-49.09126 8.98732-48.50734 9.1334-47.87212-6.29846-47.28813-6.15233-46.22052-5.88554-44.48958-5.45299-43.42197-5.1862-42.83798-5.04007-42.20242 10.70935-41.61844 10.85548-40.55081 11.12227-38.81989 11.55482-37.75227 11.8216-37.16829 11.96773-36.53305-2.20564-35.94916-2.35179-34.88155-2.61856-33.15062-3.05112-32.083-3.3179-31.4991-3.46404-30.86378 9.13332-30.27989 8.98717-29.21227 8.7204-27.48134 8.28784-26.41371 8.02106-25.82982 7.87492-25.19449-6.29846-24.6106-6.15233-23.54298-5.88554-21.81204-5.45299-20.74443-5.1862-20.16054-5.04007-19.52531 10.70935-18.94133 10.85548-17.8737 11.12227-16.14278 11.55482-15.07515 11.8216-14.49117 11.96773-11.33855-2.83484-11.33855-2.83484" fill="#cfddf7" fill-opacity=".8"/>
<path transform="matrix(.48619,0,0,-.48619,51.184625,76.47647)" stroke-width=".79701" stroke-linecap="butt" stroke-miterlimit="10" stroke-linejoin="miter" fill="none" stroke="#5475b5" stroke-opacity=".8" d="M-56.69362-8.50412C-56.69362-8.50412-53.5413 7.87483-52.95738 8.0209-51.88977 8.28778-50.15887 8.72046-49.09126 8.98732-48.50734 9.1334-47.87212-6.29846-47.28813-6.15233-46.22052-5.88554-44.48958-5.45299-43.42197-5.1862-42.83798-5.04007-42.20242 10.70935-41.61844 10.85548-40.55081 11.12227-38.81989 11.55482-37.75227 11.8216-37.16829 11.96773-36.53305-2.20564-35.94916-2.35179-34.88155-2.61856-33.15062-3.05112-32.083-3.3179-31.4991-3.46404-30.86378 9.13332-30.27989 8.98717-29.21227 8.7204-27.48134 8.28784-26.41371 8.02106-25.82982 7.87492-25.19449-6.29846-24.6106-6.15233-23.54298-5.88554-21.81204-5.45299-20.74443-5.1862-20.16054-5.04007-19.52531 10.70935-18.94133 10.85548-17.8737 11.12227-16.14278 11.55482-15.07515 11.8216-14.49117 11.96773-11.33855-2.83484-11.33855-2.83484"/>
</g>
<text xml:space="preserve" transform="matrix(.48619 0 -0 .48619 -13.514135 301.21876)" font-size="8.9664" font-family="CMSS9"><tspan y="-431.664" x="75.324 78.47121 84.36213 90.25305 99.47051 104.58136 106.77813 111.386859 116.14802 120.57742">rPPGSignal</tspan></text>
<path transform="matrix(.48619,0,0,-.48619,52.637765,77.92961)" d="M126.08665 32.59888H35.02185C31.72044 32.59888 29.04419 29.92262 29.04419 26.62122V-26.62122C29.04419-29.92262 31.72044-32.59888 35.02185-32.59888H126.08665C129.38808-32.59888 132.06432-29.92262 132.06432-26.62122V26.62122C132.06432 29.92262 129.38808 32.59888 126.08665 32.59888ZM29.04419-32.59888" fill="#7f807f" fill-opacity=".25"/>
<path transform="matrix(.48619,0,0,-.48619,51.184625,76.47647)" d="M126.08665 32.59888H35.02185C31.72044 32.59888 29.04419 29.92262 29.04419 26.62122V-26.62122C29.04419-29.92262 31.72044-32.59888 35.02185-32.59888H126.08665C129.38808-32.59888 132.06432-29.92262 132.06432-26.62122V26.62122C132.06432 29.92262 129.38808 32.59888 126.08665 32.59888ZM29.04419-32.59888" fill="#ffe2b8"/>
<path transform="matrix(.48619,0,0,-.48619,51.184625,76.47647)" stroke-width="1.39478" stroke-linecap="butt" stroke-miterlimit="10" stroke-linejoin="miter" fill="none" stroke="#333333" d="M126.08665 32.59888H35.02185C31.72044 32.59888 29.04419 29.92262 29.04419 26.62122V-26.62122C29.04419-29.92262 31.72044-32.59888 35.02185-32.59888H126.08665C129.38808-32.59888 132.06432-29.92262 132.06432-26.62122V26.62122C132.06432 29.92262 129.38808 32.59888 126.08665 32.59888ZM29.04419-32.59888"/>
<text xml:space="preserve" transform="matrix(.48619 0 -0 .48619 -13.514137 301.21879)" font-size="9.9626" font-family="CMSSBX10" font-weight="bold"><tspan y="-479.686" x="182.27 189.27371 192.9798 198.07068 203.35086 207.06691 212.84522 217.71692 222.8078 227.01203 231.21625 233.76668 239.3557">Preprocessing</tspan><tspan y="-463.746" x="174.634 180.72115 183.27158 188.751 194.34003 199.57039 205.7771 212.1731 217.15439 221.16931 224.88536 230.11573 234.98743 239.00235 241.55278 247.03221">SignalExtraction</tspan><tspan y="-451.79103" x="178.99901 185.08615 187.63658 190.18701 194.2119 199.3028 203.00888 205.55931 211.14833 216.62776 223.3326 231.2429 236.83193 242.06229 244.61272">Filtering,Qual-</tspan><tspan y="-439.83604" x="192.255 194.80544 198.52149 207.15906 214.16277 219.75179 224.84268 229.71439">ityCheck</tspan></text>
<path transform="matrix(.48619,0,0,-.48619,52.637765,77.92961)" d="M287.1952 32.59888H196.1304C192.82898 32.59888 190.15274 29.92262 190.15274 26.62122V-26.62122C190.15274-29.92262 192.82898-32.59888 196.1304-32.59888H287.1952C290.4966-32.59888 293.17289-29.92262 293.17289-26.62122V26.62122C293.17289 29.92262 290.4966 32.59888 287.1952 32.59888ZM190.15274-32.59888" fill="#7f807f" fill-opacity=".25"/>
<path transform="matrix(.48619,0,0,-.48619,51.184625,76.47647)" d="M287.1952 32.59888H196.1304C192.82898 32.59888 190.15274 29.92262 190.15274 26.62122V-26.62122C190.15274-29.92262 192.82898-32.59888 196.1304-32.59888H287.1952C290.4966-32.59888 293.17289-29.92262 293.17289-26.62122V26.62122C293.17289 29.92262 290.4966 32.59888 287.1952 32.59888ZM190.15274-32.59888" fill="#cde9ce"/>
<path transform="matrix(.48619,0,0,-.48619,51.184625,76.47647)" stroke-width="1.39478" stroke-linecap="butt" stroke-miterlimit="10" stroke-linejoin="miter" fill="none" stroke="#333333" d="M287.1952 32.59888H196.1304C192.82898 32.59888 190.15274 29.92262 190.15274 26.62122V-26.62122C190.15274-29.92262 192.82898-32.59888 196.1304-32.59888H287.1952C290.4966-32.59888 293.17289-29.92262 293.17289-26.62122V26.62122C293.17289 29.92262 290.4966 32.59888 287.1952 32.59888ZM190.15274-32.59888"/>
<text xml:space="preserve" transform="matrix(.48619 0 -0 .48619 -13.51413 301.21879)" font-size="9.9626" font-family="CMSSBX10" font-weight="bold"><tspan y="-473.321" x="334.979 340.75733 345.8482 351.07859 355.1035 360.6925 364.3986 373.14576 379.2329 384.3238 386.8742 391.9651 396.8368 400.8617 403.4121 408.89155">FeatureSelection</tspan><tspan y="-457.381" x="337.325 344.93644 350.52546 353.07588 358.05717 362.9787 366.68479 369.2352 374.46559 378.49049 387.23765">Univariate+</tspan></text>
<text xml:space="preserve" transform="matrix(.48619 0 -0 .48619 -13.51413 301.21879)" font-size="9.9626" font-family="CMR10"><tspan y="-457.381" x="399.4219 408.55763">MI</tspan></text>
<text xml:space="preserve" transform="matrix(.48619 0 -0 .48619 -13.51413 301.21879)" font-size="9.9626" font-family="CMSSBX10" font-weight="bold"><tspan y="-445.42604" x="339.59004 351.7743 361.5177 367.29603 372.88505 377.97593 380.52635 384.18263 389.77165 395.002 399.20625 404.29713">+Model-based</tspan></text>
<path transform="matrix(.48619,0,0,-.48619,52.637765,77.92961)" d="M448.30378 32.59888H357.23896C353.93754 32.59888 351.2613 29.92262 351.2613 26.62122V-26.62122C351.2613-29.92262 353.93754-32.59888 357.23896-32.59888H448.30378C451.60517-32.59888 454.28144-29.92262 454.28144-26.62122V26.62122C454.28144 29.92262 451.60517 32.59888 448.30378 32.59888ZM351.2613-32.59888" fill="#7f807f" fill-opacity=".25"/>
<path transform="matrix(.48619,0,0,-.48619,51.184625,76.47647)" d="M448.30378 32.59888H357.23896C353.93754 32.59888 351.2613 29.92262 351.2613 26.62122V-26.62122C351.2613-29.92262 353.93754-32.59888 357.23896-32.59888H448.30378C451.60517-32.59888 454.28144-29.92262 454.28144-26.62122V26.62122C454.28144 29.92262 451.60517 32.59888 448.30378 32.59888ZM351.2613-32.59888" fill="#e3c3e9"/>
<path transform="matrix(.48619,0,0,-.48619,51.184625,76.47647)" stroke-width="1.39478" stroke-linecap="butt" stroke-miterlimit="10" stroke-linejoin="miter" fill="none" stroke="#333333" d="M448.30378 32.59888H357.23896C353.93754 32.59888 351.2613 29.92262 351.2613 26.62122V-26.62122C351.2613-29.92262 353.93754-32.59888 357.23896-32.59888H448.30378C451.60517-32.59888 454.28144-29.92262 454.28144-26.62122V26.62122C454.28144 29.92262 451.60517 32.59888 448.30378 32.59888ZM351.2613-32.59888"/>
<text xml:space="preserve" transform="matrix(.48619 0 -0 .48619 -13.51413 301.21876)" font-size="9.9626" font-family="CMSSBX10" font-weight="bold"><tspan y="-478.718" x="490.122 495.90034 500.9912 506.2216 510.2465 515.8355 519.5416 528.28878 534.68478 540.27377 545.7532 548.3036 553.8926 558.98348 564.07437 567.78048 570.3309 575.91989">FeatureEngineering</tspan><tspan y="-462.77699" x="518.64 524.4283 530.51547 535.9949 543.91519 550.0023">LF/HF,</tspan><tspan y="-450.822" x="499.76603 506.7697 516.5131 522.6003 528.68746 536.6077 542.08718 548.1743 556.0946 564.0149">RMSSD/SDNN</tspan><tspan y="-438.867" x="488.26203 496.18229 501.35289 508.65547 512.3117 517.9007 523.13107 527.33529 532.42617 541.6714 550.30899 555.39987 560.6302 564.8344 570.4234 574.1295 579.2204">DFA-basedmeasures</tspan></text>
<path transform="matrix(.48619,0,0,-.48619,52.637765,77.92961)" d="M609.4123 32.59888H518.3475C515.0461 32.59888 512.3698 29.92262 512.3698 26.62122V-26.62122C512.3698-29.92262 515.0461-32.59888 518.3475-32.59888H609.4123C612.7137-32.59888 615.38998-29.92262 615.38998-26.62122V26.62122C615.38998 29.92262 612.7137 32.59888 609.4123 32.59888ZM512.3698-32.59888" fill="#7f807f" fill-opacity=".25"/>
<path transform="matrix(.48619,0,0,-.48619,51.184625,76.47647)" d="M609.4123 32.59888H518.3475C515.0461 32.59888 512.3698 29.92262 512.3698 26.62122V-26.62122C512.3698-29.92262 515.0461-32.59888 518.3475-32.59888H609.4123C612.7137-32.59888 615.38998-29.92262 615.38998-26.62122V26.62122C615.38998 29.92262 612.7137 32.59888 609.4123 32.59888ZM512.3698-32.59888" fill="#fbd2e0"/>
<path transform="matrix(.48619,0,0,-.48619,51.184625,76.47647)" stroke-width="1.39478" stroke-linecap="butt" stroke-miterlimit="10" stroke-linejoin="miter" fill="none" stroke="#333333" d="M609.4123 32.59888H518.3475C515.0461 32.59888 512.3698 29.92262 512.3698 26.62122V-26.62122C512.3698-29.92262 515.0461-32.59888 518.3475-32.59888H609.4123C612.7137-32.59888 615.38998-29.92262 615.38998-26.62122V26.62122C615.38998 29.92262 612.7137 32.59888 609.4123 32.59888ZM512.3698-32.59888"/>
<text xml:space="preserve" transform="matrix(.48619 0 -0 .48619 -13.51413 301.21876)" font-size="9.9626" font-family="CMSSBX10" font-weight="bold"><tspan y="-478.718" x="653.991 660.0782 664.1031 669.33346 674.20516 679.4953 682.0457 687.6347 696.7704 703.1664 708.7554 712.9596 718.0505 726.68807 732.27706 734.82748">StackingEnsemble</tspan><tspan y="-462.77699" x="671.679 677.7662 685.0688 692.0725 698.77737 704.5656 711.8682 719.17086">SVR,LGB,</tspan><tspan y="-450.822" x="675.637 682.6308 689.9334 697.246 703.94088 711.24349">XGB,BR</tspan><tspan y="-438.867" x="666.124 675.86746 680.9583 684.9832 690.21359 693.8698 699.6581 704.74899 709.6705 713.3766 718.9656 724.05648">Meta-Learner</tspan></text>
<path transform="matrix(.48619,0,0,-.48619,52.637765,77.92961)" d="M770.5208 32.59888H679.45608C676.1546 32.59888 673.4784 29.92262 673.4784 26.62122V-26.62122C673.4784-29.92262 676.1546-32.59888 679.45608-32.59888H770.5208C773.82229-32.59888 776.4985-29.92262 776.4985-26.62122V26.62122C776.4985 29.92262 773.82229 32.59888 770.5208 32.59888ZM673.4784-32.59888" fill="#7f807f" fill-opacity=".25"/>
<path transform="matrix(.48619,0,0,-.48619,51.184625,76.47647)" d="M770.5208 32.59888H679.45608C676.1546 32.59888 673.4784 29.92262 673.4784 26.62122V-26.62122C673.4784-29.92262 676.1546-32.59888 679.45608-32.59888H770.5208C773.82229-32.59888 776.4985-29.92262 776.4985-26.62122V26.62122C776.4985 29.92262 773.82229 32.59888 770.5208 32.59888ZM673.4784-32.59888" fill="#ffe2b8"/>
<path transform="matrix(.48619,0,0,-.48619,51.184625,76.47647)" stroke-width="1.39478" stroke-linecap="butt" stroke-miterlimit="10" stroke-linejoin="miter" fill="none" stroke="#333333" d="M770.5208 32.59888H679.45608C676.1546 32.59888 673.4784 29.92262 673.4784 26.62122V-26.62122C673.4784-29.92262 676.1546-32.59888 679.45608-32.59888H770.5208C773.82229-32.59888 776.4985-29.92262 776.4985-26.62122V26.62122C776.4985 29.92262 773.82229 32.59888 770.5208 32.59888ZM673.4784-32.59888"/>
<text xml:space="preserve" transform="matrix(.48619 0 -0 .48619 -13.51413 301.21879)" font-size="9.9626" font-family="CMSSBX10" font-weight="bold"><tspan y="-479.963" x="833.09 840.39266 842.94308 848.53207 853.6229 859.10238 862.7586 865.309 870.3999 875.3812 880.4721">Video-level</tspan><tspan y="-468.00804" x="830.343 837.6456 843.12509 848.6045 852.3106 857.4015 862.8809 868.11129 872.13619 874.6866 880.166">Aggregation</tspan><tspan y="-452.06803" x="829.59 839.33346 844.4243 849.65469 858.8999 868.02566 877.76907 882.8599">Mean/Me-</tspan><tspan y="-440.11204" x="821.882 827.471 830.0214 835.2518 844.497 853.62277 860.01876 863.72488 866.27529 874.91287 883.5504 888.6413">dian/Trimmed</tspan></text>
<path transform="matrix(.48619,0,0,-.48619,51.184625,76.47647)" d="M834.09207-26.43259C834.09207-26.98276 840.4376-27.42876 848.26547-27.42876 856.0933-27.42876 862.43887-26.98276 862.43887-26.43259V28.26869C862.43887 28.81886 856.0933 29.26486 848.26547 29.26486 840.4376 29.26486 834.09207 28.81886 834.09207 28.26869ZM834.09207 28.26869C834.09207 27.71852 840.4376 27.27252 848.26547 27.27252 856.0933 27.27252 862.43887 27.71852 862.43887 28.26869" fill="#cde9ce"/>
<path transform="matrix(.48619,0,0,-.48619,51.184625,76.47647)" stroke-width=".3985" stroke-linecap="butt" stroke-miterlimit="10" stroke-linejoin="miter" fill="none" stroke="#58975b" d="M834.09207-26.43259C834.09207-26.98276 840.4376-27.42876 848.26547-27.42876 856.0933-27.42876 862.43887-26.98276 862.43887-26.43259V28.26869C862.43887 28.81886 856.0933 29.26486 848.26547 29.26486 840.4376 29.26486 834.09207 28.81886 834.09207 28.26869ZM834.09207 28.26869C834.09207 27.71852 840.4376 27.27252 848.26547 27.27252 856.0933 27.27252 862.43887 27.71852 862.43887 28.26869"/>
<text xml:space="preserve" transform="matrix(.48619 0 -0 .48619 -13.51413 301.21876)" font-size="8.9664" font-family="CMSS9"><tspan y="-417.791" x="932.947 938.83798 943.5991 947.8492 951.38198 953.57876 958.18746 960.3842 964.9929 969.6016 971.7984 975.89608 980.32546 985.58877 990.70858 994.8062 999.1639 1002.3111">PhysiologicalScore</tspan></text>
<text xml:space="preserve" transform="matrix(.48619 0 -0 .48619 -13.51413 301.21876)" font-size="8.9664" font-family="CMR9"><tspan y="-417.791" x="1010.1119">&#x02c6;</tspan></text>
<text xml:space="preserve" transform="matrix(.48619 0 -0 .48619 -13.51413 301.21876)" font-size="8.9664" font-family="CMMI9" font-style="italic"><tspan y="-417.791" x="1009.4752">y</tspan></text>
<text xml:space="preserve" transform="matrix(.48619 0 -0 .48619 -13.51413 301.21876)" font-size="5.9776" font-family="CMMI6" font-style="italic"><tspan y="-416.79499" x="1014.02206 1017.6803 1021.52389 1025.3674">rppg</tspan></text>
<path transform="matrix(.48619,0,0,-.48619,51.184625,76.47647)" stroke-width="2.29143" stroke-linecap="butt" stroke-miterlimit="10" stroke-linejoin="miter" fill="none" stroke="#333333" d="M-11.33855 0H18.14192"/>
<path transform="matrix(.48619,0,0,-.48619,60.005044,76.47647)" d="M5.52994 0C4.85083 .17749 1.86572 1.18335 0 2.27794V-2.27794C1.86572-1.18335 4.85083-.17749 5.52994 0Z" fill="#333333"/>
<path transform="matrix(.48619,0,0,-.48619,60.005044,76.47647)" stroke-width="2.26768" stroke-linecap="butt" stroke-miterlimit="10" stroke-linejoin="miter" fill="none" stroke="#333333" d="M5.52994 0C4.85083 .17749 1.86572 1.18335 0 2.27794V-2.27794C1.86572-1.18335 4.85083-.17749 5.52994 0Z"/>
<path transform="matrix(.48619,0,0,-.48619,51.184625,76.47647)" stroke-width="2.29143" stroke-linecap="butt" stroke-miterlimit="10" stroke-linejoin="miter" fill="none" stroke="#333333" d="M132.76172 0H179.25048"/>
<path transform="matrix(.48619,0,0,-.48619,138.33441,76.47647)" d="M5.52994 0C4.85083 .17749 1.86572 1.18335 0 2.27794V-2.27794C1.86572-1.18335 4.85083-.17749 5.52994 0Z" fill="#333333"/>
<path transform="matrix(.48619,0,0,-.48619,138.33441,76.47647)" stroke-width="2.26768" stroke-linecap="butt" stroke-miterlimit="10" stroke-linejoin="miter" fill="none" stroke="#333333" d="M5.52994 0C4.85083 .17749 1.86572 1.18335 0 2.27794V-2.27794C1.86572-1.18335 4.85083-.17749 5.52994 0Z"/>
<path transform="matrix(.48619,0,0,-.48619,51.184625,76.47647)" stroke-width="2.29143" stroke-linecap="butt" stroke-miterlimit="10" stroke-linejoin="miter" fill="none" stroke="#333333" d="M293.87025 0H340.359"/>
<path transform="matrix(.48619,0,0,-.48619,216.66376,76.47647)" d="M5.52994 0C4.85083 .17749 1.86572 1.18335 0 2.27794V-2.27794C1.86572-1.18335 4.85083-.17749 5.52994 0Z" fill="#333333"/>
<path transform="matrix(.48619,0,0,-.48619,216.66376,76.47647)" stroke-width="2.26768" stroke-linecap="butt" stroke-miterlimit="10" stroke-linejoin="miter" fill="none" stroke="#333333" d="M5.52994 0C4.85083 .17749 1.86572 1.18335 0 2.27794V-2.27794C1.86572-1.18335 4.85083-.17749 5.52994 0Z"/>
<path transform="matrix(.48619,0,0,-.48619,51.184625,76.47647)" stroke-width="2.29143" stroke-linecap="butt" stroke-miterlimit="10" stroke-linejoin="miter" fill="none" stroke="#333333" d="M454.9788 0H501.46757"/>
<path transform="matrix(.48619,0,0,-.48619,294.99314,76.47647)" d="M5.52994 0C4.85083 .17749 1.86572 1.18335 0 2.27794V-2.27794C1.86572-1.18335 4.85083-.17749 5.52994 0Z" fill="#333333"/>
<path transform="matrix(.48619,0,0,-.48619,294.99314,76.47647)" stroke-width="2.26768" stroke-linecap="butt" stroke-miterlimit="10" stroke-linejoin="miter" fill="none" stroke="#333333" d="M5.52994 0C4.85083 .17749 1.86572 1.18335 0 2.27794V-2.27794C1.86572-1.18335 4.85083-.17749 5.52994 0Z"/>
<path transform="matrix(.48619,0,0,-.48619,51.184625,76.47647)" stroke-width="2.29143" stroke-linecap="butt" stroke-miterlimit="10" stroke-linejoin="miter" fill="none" stroke="#333333" d="M616.08737 0H662.5761"/>
<path transform="matrix(.48619,0,0,-.48619,373.3225,76.47647)" d="M5.52994 0C4.85083 .17749 1.86572 1.18335 0 2.27794V-2.27794C1.86572-1.18335 4.85083-.17749 5.52994 0Z" fill="#333333"/>
<path transform="matrix(.48619,0,0,-.48619,373.3225,76.47647)" stroke-width="2.26768" stroke-linecap="butt" stroke-miterlimit="10" stroke-linejoin="miter" fill="none" stroke="#333333" d="M5.52994 0C4.85083 .17749 1.86572 1.18335 0 2.27794V-2.27794C1.86572-1.18335 4.85083-.17749 5.52994 0Z"/>
<path transform="matrix(.48619,0,0,-.48619,51.184625,76.47647)" stroke-width="2.29143" stroke-linecap="butt" stroke-miterlimit="10" stroke-linejoin="miter" fill="none" stroke="#333333" d="M777.19589 0H823.68466"/>
<path transform="matrix(.48619,0,0,-.48619,451.65187,76.47647)" d="M5.52994 0C4.85083 .17749 1.86572 1.18335 0 2.27794V-2.27794C1.86572-1.18335 4.85083-.17749 5.52994 0Z" fill="#333333"/>
<path transform="matrix(.48619,0,0,-.48619,451.65187,76.47647)" stroke-width="2.26768" stroke-linecap="butt" stroke-miterlimit="10" stroke-linejoin="miter" fill="none" stroke="#333333" d="M5.52994 0C4.85083 .17749 1.86572 1.18335 0 2.27794V-2.27794C1.86572-1.18335 4.85083-.17749 5.52994 0Z"/>
<path transform="matrix(.48619,0,0,-.48619,51.669008,76.96085)" d="M283.03257-76.01573H200.29305C198.0921-76.01573 196.30794-77.7999 196.30794-80.00084V-108.56007C196.30794-110.76102 198.0921-112.54518 200.29305-112.54518H283.03257C285.2335-112.54518 287.01765-110.76102 287.01765-108.56007V-80.00084C287.01765-77.7999 285.2335-76.01573 283.03257-76.01573ZM196.30794-112.54518" fill="#82b184" fill-opacity=".3"/>
<path transform="matrix(.48619,0,0,-.48619,51.184625,76.47647)" d="M283.03257-76.01573H200.29305C198.0921-76.01573 196.30794-77.7999 196.30794-80.00084V-108.56007C196.30794-110.76102 198.0921-112.54518 200.29305-112.54518H283.03257C285.2335-112.54518 287.01765-110.76102 287.01765-108.56007V-80.00084C287.01765-77.7999 285.2335-76.01573 283.03257-76.01573ZM196.30794-112.54518" fill="#d5e5d6"/>
<path transform="matrix(.48619,0,0,-.48619,51.184625,76.47647)" stroke-width=".3985" stroke-linecap="butt" stroke-miterlimit="10" stroke-linejoin="miter" fill="none" stroke="#58975b" d="M283.03257-76.01573H200.29305C198.0921-76.01573 196.30794-77.7999 196.30794-80.00084V-108.56007C196.30794-110.76102 198.0921-112.54518 200.29305-112.54518H283.03257C285.2335-112.54518 287.01765-110.76102 287.01765-108.56007V-80.00084C287.01765-77.7999 285.2335-76.01573 283.03257-76.01573ZM196.30794-112.54518"/>
<text xml:space="preserve" transform="matrix(.48619 0 -0 .48619 -13.51413 301.21879)" font-size="8.9664" font-family="CMSSBX10" font-weight="bold"><tspan y="-376.69" x="336.587 342.0655 346.6473 348.94273 353.52455 357.90913 361.53157 363.82698 368.75849 376.85514 385.62428 390.2061 393.82853 398.85868 404.06816 409.0983">SelectionMethods</tspan></text>
<text xml:space="preserve" transform="matrix(.48619 0 -0 .48619 -13.51413 301.21879)" font-size="8.9664" font-family="CMSS9"><tspan y="-365.73103" x="340.30003 345.58125 348.6567 354.62834 358.72599 363.33473 366.48194 370.5796 374.11238 377.64515 379.84193 384.45066 389.21183">F-Regression,</tspan></text>
<text xml:space="preserve" transform="matrix(.48619 0 -0 .48619 -13.51413 301.21879)" font-size="8.9664" font-family="CMR9"><tspan y="-365.73103" x="394.8427 403.28907">MI</tspan></text>
<text xml:space="preserve" transform="matrix(.48619 0 -0 .48619 -13.51413 301.21879)" font-size="8.9664" font-family="CMSS9"><tspan y="-365.73103" x="406.6156">,</tspan><tspan y="-354.77204" x="346.014 351.98564 360.34233 362.91569 370.23228 375.2445 379.60218 382.7494 386.07594 390.50535 395.2665 399.36418">RFImportance</tspan></text>
<path transform="matrix(.48619,0,0,-.48619,51.184625,76.47647)" stroke-width="1.49442" stroke-linecap="butt" stroke-miterlimit="10" stroke-linejoin="miter" fill="none" stroke="#333333" d="M241.6628-33.29626V-65.22498"/>
<path transform="matrix(0,.48619,.48619,0,168.67865,108.1882)" d="M7.51071 0C6.58836 .22995 2.53401 1.53304 0 2.9511V-2.9511C2.53401-1.53304 6.58836-.22995 7.51071 0Z" fill="#333333"/>
<path transform="matrix(0,.48619,.48619,0,168.67865,108.1882)" stroke-width="1.49442" stroke-linecap="butt" stroke-miterlimit="10" stroke-linejoin="miter" fill="none" stroke="#333333" d="M7.51071 0C6.58836 .22995 2.53401 1.53304 0 2.9511V-2.9511C2.53401-1.53304 6.58836-.22995 7.51071 0Z"/>
<path transform="matrix(.48619,0,0,-.48619,51.669008,76.96085)" d="M605.24966-76.01573H522.51016C520.3092-76.01573 518.525-77.7999 518.525-80.00084V-106.81659C518.525-109.01753 520.3092-110.8017 522.51016-110.8017H605.24966C607.45059-110.8017 609.23477-109.01753 609.23477-106.81659V-80.00084C609.23477-77.7999 607.45059-76.01573 605.24966-76.01573ZM518.525-110.8017" fill="#d47777" fill-opacity=".3"/>
<path transform="matrix(.48619,0,0,-.48619,51.184625,76.47647)" d="M605.24966-76.01573H522.51016C520.3092-76.01573 518.525-77.7999 518.525-80.00084V-106.81659C518.525-109.01753 520.3092-110.8017 522.51016-110.8017H605.24966C607.45059-110.8017 609.23477-109.01753 609.23477-106.81659V-80.00084C609.23477-77.7999 607.45059-76.01573 605.24966-76.01573ZM518.525-110.8017" fill="#f1d2d2"/>
<path transform="matrix(.48619,0,0,-.48619,51.184625,76.47647)" stroke-width=".3985" stroke-linecap="butt" stroke-miterlimit="10" stroke-linejoin="miter" fill="none" stroke="#c54949" d="M605.24966-76.01573H522.51016C520.3092-76.01573 518.525-77.7999 518.525-80.00084V-106.81659C518.525-109.01753 520.3092-110.8017 522.51016-110.8017H605.24966C607.45059-110.8017 609.23477-109.01753 609.23477-106.81659V-80.00084C609.23477-77.7999 607.45059-76.01573 605.24966-76.01573ZM518.525-110.8017"/>
<text xml:space="preserve" transform="matrix(.48619 0 -0 .48619 -13.51413 301.21879)" font-size="8.9664" font-family="CMSSBX10" font-weight="bold"><tspan y="-376.69" x="677.533 683.2894 688.3196 692.1034 696.68527 704.4591 709.48928 711.78469">Ensemble</tspan></text>
<text xml:space="preserve" transform="matrix(.48619 0 -0 .48619 -13.51413 301.21879)" font-size="8.9664" font-family="CMSS9"><tspan y="-365.73103" x="669.69906 675.85 680.27938 683.81216 690.9763 701.216 709.2678 713.3655 716.692 721.1214">Base+Meta-</tspan><tspan y="-354.77204" x="682.72506 687.7462 691.8439 696.01327 699.16049 703.92166 708.0193">Learner</tspan></text>
<path transform="matrix(.48619,0,0,-.48619,51.184625,76.47647)" stroke-width="1.49442" stroke-linecap="butt" stroke-miterlimit="10" stroke-linejoin="miter" fill="none" stroke="#333333" d="M563.8799-33.29626V-65.22498"/>
<path transform="matrix(0,.48619,.48619,0,325.33738,108.1882)" d="M7.51071 0C6.58836 .22995 2.53401 1.53304 0 2.9511V-2.9511C2.53401-1.53304 6.58836-.22995 7.51071 0Z" fill="#333333"/>
<path transform="matrix(0,.48619,.48619,0,325.33738,108.1882)" stroke-width="1.49442" stroke-linecap="butt" stroke-miterlimit="10" stroke-linejoin="miter" fill="none" stroke="#333333" d="M7.51071 0C6.58836 .22995 2.53401 1.53304 0 2.9511V-2.9511C2.53401-1.53304 6.58836-.22995 7.51071 0Z"/>
<path transform="matrix(.48619,0,0,-.48619,51.184625,76.47647)" d="M153.5914 139.98413H7.5171C5.31618 139.98413 3.532 138.19997 3.532 135.99903V105.51282C3.532 103.31187 5.31618 101.52771 7.5171 101.52771H153.5914C155.79235 101.52771 157.5765 103.31187 157.5765 105.51282V135.99903C157.5765 138.19997 155.79235 139.98413 153.5914 139.98413ZM3.532 101.52771" fill="#ffffff"/>
<path transform="matrix(.48619,0,0,-.48619,51.184625,76.47647)" stroke-width=".3985" stroke-linecap="butt" stroke-miterlimit="10" stroke-linejoin="miter" fill="none" stroke="#4c4d4c" d="M153.5914 139.98413H7.5171C5.31618 139.98413 3.532 138.19997 3.532 135.99903V105.51282C3.532 103.31187 5.31618 101.52771 7.5171 101.52771H153.5914C155.79235 101.52771 157.5765 103.31187 157.5765 105.51282V135.99903C157.5765 138.19997 155.79235 139.98413 153.5914 139.98413ZM3.532 101.52771"/>
<text xml:space="preserve" transform="matrix(.48619 0 -0 .48619 -13.514137 301.21876)" font-size="8.9664" font-family="CMSSBX10" font-weight="bold"><tspan y="-592.687" x="139.925 147.05329 152.08344 156.7908 159.0862 161.38159 164.72606 169.20926">Quality:</tspan></text>
<text xml:space="preserve" transform="matrix(.48619 0 -0 .48619 -13.514137 301.21876)" font-size="8.9664" font-family="CMMI9" font-style="italic"><tspan y="-575.421" x="139.925">Q</tspan></text>
<text xml:space="preserve" transform="matrix(.48619 0 -0 .48619 -13.514137 301.21876)" font-size="8.9664" font-family="CMR9"><tspan y="-575.421" x="149.76114">=</tspan></text>
<text xml:space="preserve" transform="matrix(.48619 0 -0 .48619 -13.514137 301.21876)" font-size="8.9664" font-family="CMEX9"><tspan y="-587.955" x="189.977">&#xfffd;</tspan></text>
<text xml:space="preserve" transform="matrix(.48619 0 -0 .48619 -13.514137 301.21876)" font-size="8.9664" font-family="CMMI9" font-style="italic"><tspan y="-581.23007" x="201.24">P</tspan></text>
<text xml:space="preserve" transform="matrix(.48619 0 -0 .48619 -13.514137 301.21876)" font-size="8.9664" font-family="CMR9"><tspan y="-581.23007" x="208.40416">(</tspan></text>
<text xml:space="preserve" transform="matrix(.48619 0 -0 .48619 -13.514137 301.21876)" font-size="8.9664" font-family="CMMI9" font-style="italic"><tspan y="-581.23007" x="211.99073">f</tspan></text>
<text xml:space="preserve" transform="matrix(.48619 0 -0 .48619 -13.514137 301.21876)" font-size="8.9664" font-family="CMR9"><tspan y="-581.23007" x="217.44229">)</tspan></text>
<text xml:space="preserve" transform="matrix(.48619 0 -0 .48619 -13.514137 301.21876)" font-size="5.9776" font-family="CMMI6" font-style="italic"><tspan y="-580.16708" x="221.02 224.29573 228.33061 232.93337">band</tspan></text>
<path transform="matrix(.48619,0,0,-.48619,64.60493,20.364777)" stroke-width=".379" stroke-linecap="butt" stroke-miterlimit="10" stroke-linejoin="miter" fill="none" stroke="#000000" d="M0 0H105.891"/>
<text xml:space="preserve" transform="matrix(.48619 0 -0 .48619 -13.514137 301.21876)" font-size="8.9664" font-family="CMEX9"><tspan y="-576.065" x="160.676">&#xfffd;</tspan></text>
<text xml:space="preserve" transform="matrix(.48619 0 -0 .48619 -13.514137 301.21876)" font-size="8.9664" font-family="CMMI9" font-style="italic"><tspan y="-569.34" x="171.94">P</tspan></text>
<text xml:space="preserve" transform="matrix(.48619 0 -0 .48619 -13.514137 301.21876)" font-size="8.9664" font-family="CMR9"><tspan y="-569.34" x="179.10416">(</tspan></text>
<text xml:space="preserve" transform="matrix(.48619 0 -0 .48619 -13.514137 301.21876)" font-size="8.9664" font-family="CMMI9" font-style="italic"><tspan y="-569.34" x="182.69072">f</tspan></text>
<text xml:space="preserve" transform="matrix(.48619 0 -0 .48619 -13.514137 301.21876)" font-size="8.9664" font-family="CMR9"><tspan y="-569.34" x="188.14229">)</tspan></text>
<text xml:space="preserve" transform="matrix(.48619 0 -0 .48619 -13.514137 301.21876)" font-size="5.9776" font-family="CMMI6" font-style="italic"><tspan y="-568.278" x="191.719 194.57032 198.23459 201.0859 205.12079">total</tspan></text>
<text xml:space="preserve" transform="matrix(.48619 0 -0 .48619 -13.514137 301.21876)" font-size="8.9664" font-family="CMSY9" font-style="italic"><tspan y="-569.34" x="210.062">&#x2212;</tspan></text>
<text xml:space="preserve" transform="matrix(.48619 0 -0 .48619 -13.514137 301.21876)" font-size="8.9664" font-family="CMEX9"><tspan y="-576.065" x="219.277">&#xfffd;</tspan></text>
<text xml:space="preserve" transform="matrix(.48619 0 -0 .48619 -13.514137 301.21876)" font-size="8.9664" font-family="CMMI9" font-style="italic"><tspan y="-569.34" x="230.54099">P</tspan></text>
<text xml:space="preserve" transform="matrix(.48619 0 -0 .48619 -13.514137 301.21876)" font-size="8.9664" font-family="CMR9"><tspan y="-569.34" x="237.70514">(</tspan></text>
<text xml:space="preserve" transform="matrix(.48619 0 -0 .48619 -13.514137 301.21876)" font-size="8.9664" font-family="CMMI9" font-style="italic"><tspan y="-569.34" x="241.2917">f</tspan></text>
<text xml:space="preserve" transform="matrix(.48619 0 -0 .48619 -13.514137 301.21876)" font-size="8.9664" font-family="CMR9"><tspan y="-569.34" x="246.74327">)</tspan></text>
<text xml:space="preserve" transform="matrix(.48619 0 -0 .48619 -13.514137 301.21876)" font-size="5.9776" font-family="CMMI6" font-style="italic"><tspan y="-568.278" x="250.31998 253.5957 257.63059 262.23335">band</tspan></text>
<path transform="matrix(.48619,0,0,-.48619,51.184625,76.47647)" stroke-width=".79701" stroke-linecap="butt" stroke-dasharray="2.98883,2.98883" stroke-miterlimit="10" stroke-linejoin="miter" fill="none" stroke="#4c4d4c" d="M80.55426 101.32846V33.29626"/>
<path transform="matrix(.48619,0,0,-.48619,51.184625,76.47647)" d="M323.20408 129.5888H177.12978C174.92884 129.5888 173.14467 127.80464 173.14467 125.6037V105.51282C173.14467 103.31187 174.92884 101.52771 177.12978 101.52771H323.20408C325.405 101.52771 327.18919 103.31187 327.18919 105.51282V125.6037C327.18919 127.80464 325.405 129.5888 323.20408 129.5888ZM173.14467 101.52771" fill="#ffffff"/>
<path transform="matrix(.48619,0,0,-.48619,51.184625,76.47647)" stroke-width=".3985" stroke-linecap="butt" stroke-miterlimit="10" stroke-linejoin="miter" fill="none" stroke="#4c4d4c" d="M323.20408 129.5888H177.12978C174.92884 129.5888 173.14467 127.80464 173.14467 125.6037V105.51282C173.14467 103.31187 174.92884 101.52771 177.12978 101.52771H323.20408C325.405 101.52771 327.18919 103.31187 327.18919 105.51282V125.6037C327.18919 127.80464 325.405 129.5888 323.20408 129.5888ZM173.14467 101.52771"/>
<text xml:space="preserve" transform="matrix(.48619 0 -0 .48619 -13.51416 301.21879)" font-size="8.9664" font-family="CMSSBX10" font-weight="bold"><tspan y="-582.292" x="309.536 314.73655 319.31837 324.02574 327.64817 332.6783 336.01383 343.6711 349.1496 353.7314 356.02684 360.60865 364.99324 368.61567 370.91108 375.8426 380.87275">FeatureSelection:</tspan></text>
<text xml:space="preserve" transform="matrix(.48619 0 -0 .48619 -13.51416 301.21879)" font-size="8.9664" font-family="CMMI9" font-style="italic"><tspan y="-569.33999" x="309.536">F</tspan></text>
<text xml:space="preserve" transform="matrix(.48619 0 -0 .48619 -13.51416 301.21879)" font-size="5.9776" font-family="CMMI6" font-style="italic"><tspan y="-568.27798" x="315.42 318.9169 322.4377 324.8407 328.3615 331.703 334.55433 338.07514">selected</tspan></text>
<text xml:space="preserve" transform="matrix(.48619 0 -0 .48619 -13.51416 301.21879)" font-size="8.9664" font-family="CMR9"><tspan y="-569.33999" x="344.96803 354.6876 358.27415 362.88288">=top</tspan></text>
<path transform="matrix(.48619,0,0,-.48619,165.67603,24.314148)" stroke-width=".398" stroke-linecap="butt" stroke-miterlimit="10" stroke-linejoin="miter" fill="none" stroke="#000000" d="M0 0H2.765"/>
<text xml:space="preserve" transform="matrix(.48619 0 -0 .48619 -13.51416 301.21879)" font-size="8.9664" font-family="CMR9"><tspan y="-569.34" x="371.324 376.1838">k(</tspan></text>
<text xml:space="preserve" transform="matrix(.48619 0 -0 .48619 -13.51416 301.21879)" font-size="8.9664" font-family="CMMI9" font-style="italic"><tspan y="-569.34" x="379.77037 385.91236">F,</tspan></text>
<text xml:space="preserve" transform="matrix(.48619 0 -0 .48619 -13.51416 301.21879)" font-size="8.9664" font-family="CMR9"><tspan y="-569.34" x="390.01 394.61875 399.22749">25)</tspan></text>
<path transform="matrix(.48619,0,0,-.48619,51.184625,76.47647)" stroke-width=".79701" stroke-linecap="butt" stroke-dasharray="2.98883,2.98883" stroke-miterlimit="10" stroke-linejoin="miter" fill="none" stroke="#4c4d4c" d="M250.16693 101.32846 241.6628 33.29626"/>
<path transform="matrix(.48619,0,0,-.48619,51.184625,76.47647)" d="M484.31263 129.5888H338.23835C336.03739 129.5888 334.25325 127.80464 334.25325 125.6037V105.51282C334.25325 103.31187 336.03739 101.52771 338.23835 101.52771H484.31263C486.51359 101.52771 488.29774 103.31187 488.29774 105.51282V125.6037C488.29774 127.80464 486.51359 129.5888 484.31263 129.5888ZM334.25325 101.52771" fill="#ffffff"/>
<path transform="matrix(.48619,0,0,-.48619,51.184625,76.47647)" stroke-width=".3985" stroke-linecap="butt" stroke-miterlimit="10" stroke-linejoin="miter" fill="none" stroke="#4c4d4c" d="M484.31263 129.5888H338.23835C336.03739 129.5888 334.25325 127.80464 334.25325 125.6037V105.51282C334.25325 103.31187 336.03739 101.52771 338.23835 101.52771H484.31263C486.51359 101.52771 488.29774 103.31187 488.29774 105.51282V125.6037C488.29774 127.80464 486.51359 129.5888 484.31263 129.5888ZM334.25325 101.52771"/>
<text xml:space="preserve" transform="matrix(.48619 0 -0 .48619 -13.514145 301.21879)" font-size="8.9664" font-family="CMSSBX10" font-weight="bold"><tspan y="-582.292" x="470.642 475.8515 480.43333 485.1407 488.75416 493.7843 497.12879 504.7771 510.53355 515.56369 520.4952 522.7906 527.82077 532.4026 536.98446 540.31997 542.61538 547.6455 552.577">FeatureEngineering:</tspan></text>
<text xml:space="preserve" transform="matrix(.48619 0 -0 .48619 -13.514145 301.21879)" font-size="8.9664" font-family="CMSS9"><tspan y="-569.33999" x="470.642 477.30406 481.81416 487.97407">DFA:</tspan></text>
<text xml:space="preserve" transform="matrix(.48619 0 -0 .48619 -13.514145 301.21879)" font-size="8.9664" font-family="CMMI9" font-style="italic"><tspan y="-569.33999" x="493.61393">&#x03b1;</tspan></text>
<text xml:space="preserve" transform="matrix(.48619 0 -0 .48619 -13.514145 301.21879)" font-size="5.9776" font-family="CMMI6" font-style="italic"><tspan y="-568.27798" x="499.51 502.8515 506.3723 510.97508 513.82638 517.34719 521.00546 524.52627">centered</tspan></text>
<text xml:space="preserve" transform="matrix(.48619 0 -0 .48619 -13.514145 301.21879)" font-size="8.9664" font-family="CMR9"><tspan y="-569.33999" x="531.425">=</tspan></text>
<text xml:space="preserve" transform="matrix(.48619 0 -0 .48619 -13.514145 301.21879)" font-size="8.9664" font-family="CMSY9" font-style="italic"><tspan y="-569.33999" x="541.14456">|</tspan></text>
<text xml:space="preserve" transform="matrix(.48619 0 -0 .48619 -13.514145 301.21879)" font-size="8.9664" font-family="CMMI9" font-style="italic"><tspan y="-569.33999" x="543.7089">&#x03b1;</tspan></text>
<text xml:space="preserve" transform="matrix(.48619 0 -0 .48619 -13.514145 301.21879)" font-size="8.9664" font-family="CMSY9" font-style="italic"><tspan y="-569.33999" x="551.68008">&#x2212;</tspan></text>
<text xml:space="preserve" transform="matrix(.48619 0 -0 .48619 -13.514145 301.21879)" font-size="8.9664" font-family="CMR9"><tspan y="-569.33999" x="560.88858">1</tspan></text>
<text xml:space="preserve" transform="matrix(.48619 0 -0 .48619 -13.514145 301.21879)" font-size="8.9664" font-family="CMMI9" font-style="italic"><tspan y="-569.33999" x="565.49728">.</tspan></text>
<text xml:space="preserve" transform="matrix(.48619 0 -0 .48619 -13.514145 301.21879)" font-size="8.9664" font-family="CMR9"><tspan y="-569.33999" x="568.06167">0</tspan></text>
<text xml:space="preserve" transform="matrix(.48619 0 -0 .48619 -13.514145 301.21879)" font-size="8.9664" font-family="CMSY9" font-style="italic"><tspan y="-569.33999" x="572.67037">|</tspan></text>
<path transform="matrix(.48619,0,0,-.48619,51.184625,76.47647)" stroke-width=".79701" stroke-linecap="butt" stroke-dasharray="2.98883,2.98883" stroke-miterlimit="10" stroke-linejoin="miter" fill="none" stroke="#4c4d4c" d="M411.27549 101.32846 402.77137 33.29626"/>
<path transform="matrix(.48619,0,0,-.48619,51.184625,76.47647)" d="M645.42117 140.54785H499.3469C497.14595 140.54785 495.36177 138.76369 495.36177 136.56275V105.51282C495.36177 103.31187 497.14595 101.52771 499.3469 101.52771H645.42117C647.6221 101.52771 649.40628 103.31187 649.40628 105.51282V136.56275C649.40628 138.76369 647.6221 140.54785 645.42117 140.54785ZM495.36177 101.52771" fill="#ffffff"/>
<path transform="matrix(.48619,0,0,-.48619,51.184625,76.47647)" stroke-width=".3985" stroke-linecap="butt" stroke-miterlimit="10" stroke-linejoin="miter" fill="none" stroke="#4c4d4c" d="M645.42117 140.54785H499.3469C497.14595 140.54785 495.36177 138.76369 495.36177 136.56275V105.51282C495.36177 103.31187 497.14595 101.52771 499.3469 101.52771H645.42117C647.6221 101.52771 649.40628 103.31187 649.40628 105.51282V136.56275C649.40628 138.76369 647.6221 140.54785 645.42117 140.54785ZM495.36177 101.52771"/>
<text xml:space="preserve" transform="matrix(.48619 0 -0 .48619 -13.51416 301.21876)" font-size="8.9664" font-family="CMSSBX10" font-weight="bold"><tspan y="-593.251" x="631.749 637.50546 642.5356 646.3194 650.90127 658.6751 663.70529 666.0007 673.64907 679.95248 683.28799 687.8698 692.89999 695.1954 699.57998 703.2024 705.4978 710.4293 715.4595">EnsemblePrediction:</tspan></text>
<text xml:space="preserve" transform="matrix(.48619 0 -0 .48619 -13.51416 301.21876)" font-size="8.9664" font-family="CMR9"><tspan y="-580.29898" x="632.387">&#x02c6;</tspan></text>
<text xml:space="preserve" transform="matrix(.48619 0 -0 .48619 -13.51416 301.21876)" font-size="8.9664" font-family="CMMI9" font-style="italic"><tspan y="-580.29898" x="631.75039">y</tspan></text>
<text xml:space="preserve" transform="matrix(.48619 0 -0 .48619 -13.51416 301.21876)" font-size="8.9664" font-family="CMR9"><tspan y="-580.29898" x="655.36788">=</tspan></text>
<text xml:space="preserve" transform="matrix(.48619 0 -0 .48619 -13.51416 301.21876)" font-size="8.9664" font-family="CMMI9" font-style="italic"><tspan y="-569.33999" x="631.749">&#x03c8;</tspan></text>
<text xml:space="preserve" transform="matrix(.48619 0 -0 .48619 -13.51416 301.21876)" font-size="5.9776" font-family="CMMI6" font-style="italic"><tspan y="-568.344" x="637.76107 644.30056 647.82138 650.67269">meta</tspan></text>
<text xml:space="preserve" transform="matrix(.48619 0 -0 .48619 -13.51416 301.21876)" font-size="8.9664" font-family="CMR9"><tspan y="-569.33999" x="655.20309 658.7896">([</tspan></text>
<text xml:space="preserve" transform="matrix(.48619 0 -0 .48619 -13.51416 301.21876)" font-size="8.9664" font-family="CMMI9" font-style="italic"><tspan y="-569.33999" x="661.354">&#x03c8;</tspan></text>
<text xml:space="preserve" transform="matrix(.48619 0 -0 .48619 -13.51416 301.21876)" font-size="5.9776" font-family="CMMI6" font-style="italic"><tspan y="-568.344" x="667.3581 672.19998 678.1118">SVR</tspan></text>
<text xml:space="preserve" transform="matrix(.48619 0 -0 .48619 -13.51416 301.21876)" font-size="8.9664" font-family="CMMI9" font-style="italic"><tspan y="-569.33999" x="684.1421 688.23977">,&#x03c8;</tspan></text>
<text xml:space="preserve" transform="matrix(.48619 0 -0 .48619 -13.51416 301.21876)" font-size="5.9776" font-family="CMMI6" font-style="italic"><tspan y="-568.344" x="694.25009 699.3071 705.0038">LGB</tspan></text>
<text xml:space="preserve" transform="matrix(.48619 0 -0 .48619 -13.51416 301.21876)" font-size="8.9664" font-family="CMMI9" font-style="italic"><tspan y="-569.33999" x="711.3271 715.42477">,&#x03c8;</tspan></text>
<text xml:space="preserve" transform="matrix(.48619 0 -0 .48619 -13.51416 301.21876)" font-size="5.9776" font-family="CMMI6" font-style="italic"><tspan y="-568.344" x="721.43508 727.8789 733.57559">XGB</tspan></text>
<text xml:space="preserve" transform="matrix(.48619 0 -0 .48619 -13.51416 301.21876)" font-size="8.9664" font-family="CMMI9" font-style="italic"><tspan y="-569.33999" x="739.90206 743.9997">,&#x03c8;</tspan></text>
<text xml:space="preserve" transform="matrix(.48619 0 -0 .48619 -13.51416 301.21876)" font-size="5.9776" font-family="CMMI6" font-style="italic"><tspan y="-568.344" x="750.01 755.8382">BR</tspan></text>
<text xml:space="preserve" transform="matrix(.48619 0 -0 .48619 -13.51416 301.21876)" font-size="8.9664" font-family="CMR9"><tspan y="-569.33999" x="761.867 764.4314">])</tspan></text>
<path transform="matrix(.48619,0,0,-.48619,51.184625,76.47647)" stroke-width=".79701" stroke-linecap="butt" stroke-dasharray="2.98883,2.98883" stroke-miterlimit="10" stroke-linejoin="miter" fill="none" stroke="#4c4d4c" d="M572.38406 101.32846 563.8799 33.29626"/>
<text xml:space="preserve" transform="matrix(1 0 -0 1 -50.51 480.8)" font-size="9.9626" font-family="CMR10"><tspan y="-327.591" x="72 78.50558 81.27518 86.25648 91.795688 95.70103 104.42826 109.40956 118.58511 125.369647 129.27498 134.25627 140.07442 145.05571 148.98097 153.40438 163.24742 167.15276 173.93729 180.72182 188.54247 191.86002 197.39922 202.38051 206.30577 210.72917 220.58219 226.12139 231.38164 236.64189 240.56716 243.33676 248.31806 251.08766 256.06898 261.05027 263.81986 268.24327 273.22456 280.30796 284.23323 288.65663 293.6379 297.54325 306.27049 310.69389 314.61915 318.4946 321.2642 329.56306 334.54435 338.4198 341.1894 346.1707 356.0237 361.56294 364.33253 370.14073 374.56413 377.3337 380.1033 385.64253 390.06593 400.22776 406.45439 411.43568 415.341 420.3223 424.7457 432.96485 436.8403 441.2637 446.52397 454.70326 459.68455 465.22377 475.07679 479.00205 484.54127 489.52256 493.94596 496.71556 502.25477 511.5399 515.96328 521.50247 525.42776 530.9669 534.87228">Figure1:ProposedrPPG-basedphysiologicalscoreestimationpipeline.Largertextandspacingensure</tspan><tspan y="-315.63603" x="72 75.90534 80.328739 85.310039 90.84924 95.83054 101.36975 104.13935 106.90895 109.67855 113.27505 121.852848 124.622447 133.48917 139.02837 142.9337 145.70331 150.96356 154.83902">readabilityinprint.</tspan></text>
<text xml:space="preserve" transform="matrix(1 0 -0 1 -50.51 480.8)" font-size="9.9626" font-family="CMR10"><tspan y="-89.36502" x="303.133">1</tspan></text>
<g clip-path="url(#clip_0)">
<g>
<path transform="matrix(1,0,0,-1,-50.51,480.8)" d="M51.01 341.18H546.95V480.3H51.01Z" fill="#ffffff" fill-opacity=".1" fill-rule="evenodd"/>
<path transform="matrix(1,0,0,-1,-50.51,480.8)" stroke-width="1" stroke-linecap="butt" stroke-miterlimit="10" stroke-linejoin="miter" fill="none" stroke="#00a5e4" stroke-opacity=".1" d="M51.01 341.18H546.95V480.3H51.01Z"/>
</g>
</g>
</svg>
