<svg xmlns="http://www.w3.org/2000/svg" xmlns:xlink="http://www.w3.org/1999/xlink" xmlns:inkscape="http://www.inkscape.org/namespaces/inkscape" version="1.1" width="485.54" height="159.67002" viewBox="0 0 485.54 159.67002">
<defs>
<clipPath id="clip_0">
<path transform="matrix(1,0,0,-1,-61.91,490.57)" d="M61.91 330.901H547.45V490.57H61.91Z"/>
</clipPath>
</defs>
<path transform="matrix(.51073,0,0,-.51073,50.32116,91.7165)" d="M5.66927-91.2436V99.74773C5.66927 104.14961 9.2376 107.71794 13.63948 107.71794H629.833C634.23489 107.71794 637.8032 104.14961 637.8032 99.74773V-91.2436C637.8032-95.6455 634.23489-99.21382 629.833-99.21382H13.63948C9.2376-99.21382 5.66927-95.6455 5.66927-91.2436ZM637.8032 107.71794" fill="#eff2f3"/>
<path transform="matrix(.51073,0,0,-.51073,50.32116,91.7165)" d="M-76.5363-5.66928H-36.85094V51.024339H-76.5363Z" fill="#cfddf7"/>
<path transform="matrix(.51073,0,0,-.51073,50.32116,91.7165)" stroke-width=".3985" stroke-linecap="butt" stroke-miterlimit="10" stroke-linejoin="miter" fill="none" stroke="#5475b5" d="M-76.5363-5.66928H-36.85094V51.024339H-76.5363Z"/>
<path transform="matrix(.51073,0,0,-.51073,50.32116,91.7165)" d="M-53.85876-5.66928H-14.173401V51.024339H-53.85876Z" fill="#cfddf7"/>
<path transform="matrix(.51073,0,0,-.51073,50.32116,91.7165)" stroke-width=".3985" stroke-linecap="butt" stroke-miterlimit="10" stroke-linejoin="miter" fill="none" stroke="#5475b5" d="M-53.85876-5.66928H-14.173401V51.024339H-53.85876Z"/>
<path transform="matrix(.51073,0,0,-.51073,50.32116,91.7165)" d="M-31.18123-5.66928H8.504129V51.024339H-31.18123Z" fill="#cfddf7"/>
<path transform="matrix(.51073,0,0,-.51073,50.32116,91.7165)" stroke-width=".3985" stroke-linecap="butt" stroke-miterlimit="10" stroke-linejoin="miter" fill="none" stroke="#5475b5" d="M-31.18123-5.66928H8.504129V51.024339H-31.18123Z"/>
<text xml:space="preserve" transform="matrix(.51073 0 -0 .51073 -26.681096 323.26414)" font-size="8.9664" font-family="CMSS9"><tspan y="-430.166" x="75.324 77.897357 82.658519 87.41968 92.18084 98.582859 104.742778 106.939548 111.69174 115.78938 123.47359 127.06015 132.0903 135.22853 139.6669 146.98349 151.08113 154.61389">InputVideo(Frames)</tspan></text>
<path transform="matrix(.51073,0,0,-.51073,51.847646,93.24298)" d="M112.11253 55.36057H32.38628C29.08485 55.36057 26.40862 52.68431 26.40862 49.3829V-4.02786C26.40862-7.32927 29.08485-10.00552 32.38628-10.00552H112.11253C115.41394-10.00552 118.0902-7.32927 118.0902-4.02786V49.3829C118.0902 52.68431 115.41394 55.36057 112.11253 55.36057ZM26.40862-10.00552" fill="#7f807f" fill-opacity=".25"/>
<path transform="matrix(.51073,0,0,-.51073,50.32116,91.7165)" d="M112.11253 55.36057H32.38628C29.08485 55.36057 26.40862 52.68431 26.40862 49.3829V-4.02786C26.40862-7.32927 29.08485-10.00552 32.38628-10.00552H112.11253C115.41394-10.00552 118.0902-7.32927 118.0902-4.02786V49.3829C118.0902 52.68431 115.41394 55.36057 112.11253 55.36057ZM26.40862-10.00552" fill="#ffe2b8"/>
<path transform="matrix(.51073,0,0,-.51073,50.32116,91.7165)" stroke-width="1.39478" stroke-linecap="butt" stroke-miterlimit="10" stroke-linejoin="miter" fill="none" stroke="#333333" d="M112.11253 55.36057H32.38628C29.08485 55.36057 26.40862 52.68431 26.40862 49.3829V-4.02786C26.40862-7.32927 29.08485-10.00552 32.38628-10.00552H112.11253C115.41394-10.00552 118.0902-7.32927 118.0902-4.02786V49.3829C118.0902 52.68431 115.41394 55.36057 112.11253 55.36057ZM26.40862-10.00552"/>
<text xml:space="preserve" transform="matrix(.51073 0 -0 .51073 -26.681099 323.26414)" font-size="9.9626" font-family="CMSSBX10" font-weight="bold"><tspan y="-498.487" x="191.662 198.66571 202.3718 207.46268 212.74286 216.44895 222.23722 227.10892 232.1998 236.40402 240.60825 243.15868 248.7477">Preprocessing</tspan><tspan y="-482.546" x="188.384 194.16231 199.39267 204.26438 213.01154 220.93181 226.0227 230.04759 235.13849 240.0102 244.03508 246.58551 252.06494">FaceDetection</tspan><tspan y="-470.591" x="199.612 206.91458 209.46501 212.01544 217.49488 223.0839 231.72147 236.81235 242.40137">Alignment</tspan><tspan y="-458.63603" x="202.165 208.25214 213.4825 222.12007 227.70909 230.25952 232.80995 238.39897">Sampling</tspan><tspan y="-446.68104" x="191.331 199.25127 204.42186 208.12795 216.76552 221.99588 224.54631 227.09674 231.83895 237.0693 241.0942 243.64463 249.12406">Normalization</tspan></text>
<path transform="matrix(.51073,0,0,-.51073,51.847646,93.24298)" d="M261.8825 53.85896H182.15627C178.85486 53.85896 176.1786 51.18271 176.1786 47.8813V-2.52626C176.1786-5.82767 178.85486-8.50392 182.15627-8.50392H261.8825C265.18394-8.50392 267.86018-5.82767 267.86018-2.52626V47.8813C267.86018 51.18271 265.18394 53.85896 261.8825 53.85896ZM176.1786-8.50392" fill="#7f807f" fill-opacity=".25"/>
<path transform="matrix(.51073,0,0,-.51073,50.32116,91.7165)" d="M261.8825 53.85896H182.15627C178.85486 53.85896 176.1786 51.18271 176.1786 47.8813V-2.52626C176.1786-5.82767 178.85486-8.50392 182.15627-8.50392H261.8825C265.18394-8.50392 267.86018-5.82767 267.86018-2.52626V47.8813C267.86018 51.18271 265.18394 53.85896 261.8825 53.85896ZM176.1786-8.50392" fill="#dfe5e8"/>
<path transform="matrix(.51073,0,0,-.51073,50.32116,91.7165)" stroke-width="1.39478" stroke-linecap="butt" stroke-miterlimit="10" stroke-linejoin="miter" fill="none" stroke="#333333" d="M261.8825 53.85896H182.15627C178.85486 53.85896 176.1786 51.18271 176.1786 47.8813V-2.52626C176.1786-5.82767 178.85486-8.50392 182.15627-8.50392H261.8825C265.18394-8.50392 267.86018-5.82767 267.86018-2.52626V47.8813C267.86018 51.18271 265.18394 53.85896 261.8825 53.85896ZM176.1786-8.50392"/>
<text xml:space="preserve" transform="matrix(.51073 0 -0 .51073 -26.681092 323.26414)" font-size="9.9626" font-family="CMSSBX10" font-weight="bold"><tspan y="-492.704" x="348.816 355.8197 360.91059 365.1148 373.03507 378.12596 382.15086 385.80714 391.28657">ResNet-50</tspan><tspan y="-480.74903" x="350.411 357.7136 362.94398 367.81568 373.1058 379.00367 384.4831 390.0721">Backbone</tspan></text>
<text xml:space="preserve" transform="matrix(.51073 0 -0 .51073 -26.681092 323.26414)" font-size="9.9626" font-family="CMMI10" font-style="italic"><tspan y="-464.808" x="348.823">f</tspan></text>
<text xml:space="preserve" transform="matrix(.51073 0 -0 .51073 -26.681092 323.26414)" font-size="6.9738" font-family="CMMI7" font-style="italic"><tspan y="-463.31404" x="353.7">t</tspan></text>
<text xml:space="preserve" transform="matrix(.51073 0 -0 .51073 -26.681092 323.26414)" font-size="9.9626" font-family="CMR10"><tspan y="-464.808" x="362.31803">=</tspan></text>
<text xml:space="preserve" transform="matrix(.51073 0 -0 .51073 -26.681092 323.26414)" font-size="9.9626" font-family="CMMI10" font-style="italic"><tspan y="-464.808" x="375.17976">&#x03d5;</tspan></text>
<text xml:space="preserve" transform="matrix(.51073 0 -0 .51073 -26.681092 323.26414)" font-size="9.9626" font-family="CMR10"><tspan y="-464.808" x="381.11747">(</tspan></text>
<text xml:space="preserve" transform="matrix(.51073 0 -0 .51073 -26.681092 323.26414)" font-size="9.9626" font-family="CMMI10" font-style="italic"><tspan y="-464.808" x="384.99293">I</tspan></text>
<text xml:space="preserve" transform="matrix(.51073 0 -0 .51073 -26.681092 323.26414)" font-size="6.9738" font-family="CMMI7" font-style="italic"><tspan y="-463.31404" x="389.36705">t</tspan></text>
<text xml:space="preserve" transform="matrix(.51073 0 -0 .51073 -26.681092 323.26414)" font-size="9.9626" font-family="CMR10"><tspan y="-464.808" x="392.87504">)</tspan></text>
<text xml:space="preserve" transform="matrix(.51073 0 -0 .51073 -26.681092 323.26414)" font-size="9.9626" font-family="CMSY10" font-style="italic"><tspan y="-452.85304" x="354.74705">&#x2208;</tspan></text>
<text xml:space="preserve" transform="matrix(.51073 0 -0 .51073 -26.681092 323.26414)" font-size="9.9626" font-family="MSBM10"><tspan y="-452.85304" x="367.2501">R</tspan></text>
<text xml:space="preserve" transform="matrix(.51073 0 -0 .51073 -26.681092 323.26414)" font-size="6.9738" font-family="CMR7"><tspan y="-456.46903" x="374.44206 378.4171 382.39219 386.36726">2048</tspan></text>
<path transform="matrix(.51073,0,0,-.51073,51.847646,93.24298)" d="M411.65254 62.30684H331.92628C328.62486 62.30684 325.9486 59.63058 325.9486 56.32918V-10.97414C325.9486-14.27554 328.62486-16.9518 331.92628-16.9518H411.65254C414.95393-16.9518 417.6302-14.27554 417.6302-10.97414V56.32918C417.6302 59.63058 414.95393 62.30684 411.65254 62.30684ZM325.9486-16.9518" fill="#7f807f" fill-opacity=".25"/>
<path transform="matrix(.51073,0,0,-.51073,50.32116,91.7165)" d="M411.65254 62.30684H331.92628C328.62486 62.30684 325.9486 59.63058 325.9486 56.32918V-10.97414C325.9486-14.27554 328.62486-16.9518 331.92628-16.9518H411.65254C414.95393-16.9518 417.6302-14.27554 417.6302-10.97414V56.32918C417.6302 59.63058 414.95393 62.30684 411.65254 62.30684ZM325.9486-16.9518" fill="#cde9ce"/>
<path transform="matrix(.51073,0,0,-.51073,50.32116,91.7165)" stroke-width="1.39478" stroke-linecap="butt" stroke-miterlimit="10" stroke-linejoin="miter" fill="none" stroke="#333333" d="M411.65254 62.30684H331.92628C328.62486 62.30684 325.9486 59.63058 325.9486 56.32918V-10.97414C325.9486-14.27554 328.62486-16.9518 331.92628-16.9518H411.65254C414.95393-16.9518 417.6302-14.27554 417.6302-10.97414V56.32918C417.6302 59.63058 414.95393 62.30684 411.65254 62.30684ZM325.9486-16.9518"/>
<text xml:space="preserve" transform="matrix(.51073 0 -0 .51073 -26.681077 323.26417)" font-size="9.9626" font-family="CMSSBX10" font-weight="bold"><tspan y="-505.433" x="499.313 505.70899 510.69029 515.97048 519.6766 524.76748 528.9717 533.1759 535.7263 540.70767">Expressive</tspan><tspan y="-493.47804" x="485.83699 491.62525 495.33134 500.5617 509.19929 517.93649 524.0236 529.1145 531.6649 536.7558 541.6275 545.6524 548.2028 553.68228">FrameSelection</tspan></text>
<text xml:space="preserve" transform="matrix(.51073 0 -0 .51073 -26.681077 323.26417)" font-size="9.9626" font-family="CMMI10" font-style="italic"><tspan y="-477.53703" x="510.43598">&#x03b1;</tspan></text>
<text xml:space="preserve" transform="matrix(.51073 0 -0 .51073 -26.681077 323.26417)" font-size="6.9738" font-family="CMMI7" font-style="italic"><tspan y="-476.04304" x="516.80899">t</tspan></text>
<text xml:space="preserve" transform="matrix(.51073 0 -0 .51073 -26.681077 323.26417)" font-size="9.9626" font-family="CMR10"><tspan y="-477.53703" x="526.923">=</tspan></text>
<text xml:space="preserve" transform="matrix(.51073 0 -0 .51073 -26.681077 323.26417)" font-size="9.9626" font-family="CMMI10" font-style="italic"><tspan y="-465.58204" x="483.14997">&#x03c3;</tspan></text>
<text xml:space="preserve" transform="matrix(.51073 0 -0 .51073 -26.681077 323.26417)" font-size="9.9626" font-family="CMR10"><tspan y="-465.58204" x="489.19728">(</tspan></text>
<text xml:space="preserve" transform="matrix(.51073 0 -0 .51073 -26.681077 323.26417)" font-size="9.9626" font-family="CMMI10" font-style="italic"><tspan y="-465.58204" x="493.07273">w</tspan></text>
<text xml:space="preserve" transform="matrix(.51073 0 -0 .51073 -26.681077 323.26417)" font-size="6.9738" font-family="CMSY7" font-style="italic"><tspan y="-469.19804" x="500.47499">&#x22a4;</tspan></text>
<text xml:space="preserve" transform="matrix(.51073 0 -0 .51073 -26.681077 323.26417)" font-size="9.9626" font-family="CMR10"><tspan y="-465.58204" x="508.86 512.7354 517.71676 523.2559 528.7951">tanh(</tspan></text>
<text xml:space="preserve" transform="matrix(.51073 0 -0 .51073 -26.681077 323.26417)" font-size="9.9626" font-family="CMMI10" font-style="italic"><tspan y="-465.58204" x="532.67056 543.4601">Wf</tspan></text>
<text xml:space="preserve" transform="matrix(.51073 0 -0 .51073 -26.681077 323.26417)" font-size="6.9738" font-family="CMMI7" font-style="italic"><tspan y="-464.08805" x="548.32998">t</tspan></text>
<text xml:space="preserve" transform="matrix(.51073 0 -0 .51073 -26.681077 323.26417)" font-size="9.9626" font-family="CMR10"><tspan y="-465.58204" x="554.209">+</tspan></text>
<text xml:space="preserve" transform="matrix(.51073 0 -0 .51073 -26.681077 323.26417)" font-size="9.9626" font-family="CMMI10" font-style="italic"><tspan y="-453.62705" x="516.542">b</tspan></text>
<text xml:space="preserve" transform="matrix(.51073 0 -0 .51073 -26.681077 323.26417)" font-size="9.9626" font-family="CMR10"><tspan y="-453.62705" x="520.8159 524.69137">))</tspan></text>
<text xml:space="preserve" transform="matrix(.51073 0 -0 .51073 -26.681077 323.26417)" font-size="9.9626" font-family="CMSSBX10" font-weight="bold"><tspan y="-441.67207" x="485.62599 492.012 497.49143 506.73674 512.2161 517.69558 526.83126 532.60958 536.3157 541.546 550.1836 555.2745">Top100Frames</tspan></text>
<path transform="matrix(.51073,0,0,-.51073,51.847646,93.24298)" d="M561.42257 62.83267H481.69627C478.39485 62.83267 475.7186 60.15642 475.7186 56.85501V-11.49997C475.7186-14.80138 478.39485-17.47763 481.69627-17.47763H561.42257C564.72396-17.47763 567.4002-14.80138 567.4002-11.49997V56.85501C567.4002 60.15642 564.72396 62.83267 561.42257 62.83267ZM475.7186-17.47763" fill="#7f807f" fill-opacity=".25"/>
<path transform="matrix(.51073,0,0,-.51073,50.32116,91.7165)" d="M561.42257 62.83267H481.69627C478.39485 62.83267 475.7186 60.15642 475.7186 56.85501V-11.49997C475.7186-14.80138 478.39485-17.47763 481.69627-17.47763H561.42257C564.72396-17.47763 567.4002-14.80138 567.4002-11.49997V56.85501C567.4002 60.15642 564.72396 62.83267 561.42257 62.83267ZM475.7186-17.47763" fill="#e3c3e9"/>
<path transform="matrix(.51073,0,0,-.51073,50.32116,91.7165)" stroke-width="1.39478" stroke-linecap="butt" stroke-miterlimit="10" stroke-linejoin="miter" fill="none" stroke="#333333" d="M561.42257 62.83267H481.69627C478.39485 62.83267 475.7186 60.15642 475.7186 56.85501V-11.49997C475.7186-14.80138 478.39485-17.47763 481.69627-17.47763H561.42257C564.72396-17.47763 567.4002-14.80138 567.4002-11.49997V56.85501C567.4002 60.15642 564.72396 62.83267 561.42257 62.83267ZM475.7186-17.47763"/>
<text xml:space="preserve" transform="matrix(.51073 0 -0 .51073 -26.681092 323.26414)" font-size="9.9626" font-family="CMSSBX10" font-weight="bold"><tspan y="-505.959" x="642.676 652.41946 658.0084 660.55886 664.58377 667.13418 670.7904 677.7941 682.885 688.36447 690.91488 696.3943">Multi-Region</tspan><tspan y="-494.00303" x="654.021 661.3236 666.9126 672.14297 674.69338 679.6747 683.8789 686.4293">Analysis</tspan><tspan y="-478.06303" x="642.05599 648.45199 653.12448 658.21536 662.41958 669.1244 678.8678 684.3472 689.9362 693.9611 699.5501">Eyes,Mouth,</tspan><tspan y="-466.10804" x="656.191 663.1947 668.7837 673.8746 678.96548 684.2556">Cheeks</tspan></text>
<text xml:space="preserve" transform="matrix(.51073 0 -0 .51073 -26.681092 323.26414)" font-size="9.9626" font-family="CMMI10" font-style="italic"><tspan y="-454.15306" x="656">f</tspan></text>
<text xml:space="preserve" transform="matrix(.51073 0 -0 .51073 -26.681092 323.26414)" font-size="6.9738" font-family="CMSSBX10" font-weight="bold"><tspan y="-452.65907" x="660.878 662.9213 664.96469 668.87698 672.5382">final</tspan></text>
<text xml:space="preserve" transform="matrix(.51073 0 -0 .51073 -26.681092 323.26414)" font-size="9.9626" font-family="CMR10"><tspan y="-454.15306" x="680.895">=</tspan></text>
<text xml:space="preserve" transform="matrix(.51073 0 -0 .51073 -26.681092 323.26414)" font-size="9.9626" font-family="CMEX10"><tspan y="-449.67005" x="631.24307">&#xfffd;</tspan></text>
<text xml:space="preserve" transform="matrix(.51073 0 -0 .51073 -26.681092 323.26414)" font-size="6.9738" font-family="CMMI7" font-style="italic"><tspan y="-439.20906" x="641.75906">r</tspan></text>
<text xml:space="preserve" transform="matrix(.51073 0 -0 .51073 -26.681092 323.26414)" font-size="9.9626" font-family="CMMI10" font-style="italic"><tspan y="-442.19807" x="647.83108">&#x03bb;</tspan></text>
<text xml:space="preserve" transform="matrix(.51073 0 -0 .51073 -26.681092 323.26414)" font-size="6.9738" font-family="CMMI7" font-style="italic"><tspan y="-440.70307" x="653.64309">r</tspan></text>
<text xml:space="preserve" transform="matrix(.51073 0 -0 .51073 -26.681092 323.26414)" font-size="9.9626" font-family="CMSSBX10" font-weight="bold"><tspan y="-442.19807" x="658.05508 665.35769 672.6603">GAP</tspan></text>
<text xml:space="preserve" transform="matrix(.51073 0 -0 .51073 -26.681092 323.26414)" font-size="9.9626" font-family="CMR10"><tspan y="-442.19807" x="679.664">(</tspan></text>
<text xml:space="preserve" transform="matrix(.51073 0 -0 .51073 -26.681092 323.26414)" font-size="9.9626" font-family="CMMI10" font-style="italic"><tspan y="-442.19807" x="683.5394">&#x03d5;</tspan></text>
<text xml:space="preserve" transform="matrix(.51073 0 -0 .51073 -26.681092 323.26414)" font-size="6.9738" font-family="CMMI7" font-style="italic"><tspan y="-440.70307" x="689.47909">r</tspan></text>
<text xml:space="preserve" transform="matrix(.51073 0 -0 .51073 -26.681092 323.26414)" font-size="9.9626" font-family="CMR10"><tspan y="-442.19807" x="693.8901">(</tspan></text>
<text xml:space="preserve" transform="matrix(.51073 0 -0 .51073 -26.681092 323.26414)" font-size="9.9626" font-family="CMMI10" font-style="italic"><tspan y="-442.19807" x="697.7655">I</tspan></text>
<text xml:space="preserve" transform="matrix(.51073 0 -0 .51073 -26.681092 323.26414)" font-size="6.9738" font-family="CMMI7" font-style="italic"><tspan y="-440.70307" x="702.1441">t</tspan></text>
<text xml:space="preserve" transform="matrix(.51073 0 -0 .51073 -26.681092 323.26414)" font-size="9.9626" font-family="CMR10"><tspan y="-442.19807" x="705.6521 709.5275">))</tspan></text>
<path transform="matrix(.51073,0,0,-.51073,51.847646,93.24298)" d="M711.1925 56.60591H631.46627C628.16488 56.60591 625.4886 53.92966 625.4886 50.62825V-5.27321C625.4886-8.57462 628.16488-11.25087 631.46627-11.25087H711.1925C714.49398-11.25087 717.17019-8.57462 717.17019-5.27321V50.62825C717.17019 53.92966 714.49398 56.60591 711.1925 56.60591ZM625.4886-11.25087" fill="#7f807f" fill-opacity=".25"/>
<path transform="matrix(.51073,0,0,-.51073,50.32116,91.7165)" d="M711.1925 56.60591H631.46627C628.16488 56.60591 625.4886 53.92966 625.4886 50.62825V-5.27321C625.4886-8.57462 628.16488-11.25087 631.46627-11.25087H711.1925C714.49398-11.25087 717.17019-8.57462 717.17019-5.27321V50.62825C717.17019 53.92966 714.49398 56.60591 711.1925 56.60591ZM625.4886-11.25087" fill="#ffe2b8"/>
<path transform="matrix(.51073,0,0,-.51073,50.32116,91.7165)" stroke-width="1.39478" stroke-linecap="butt" stroke-miterlimit="10" stroke-linejoin="miter" fill="none" stroke="#333333" d="M711.1925 56.60591H631.46627C628.16488 56.60591 625.4886 53.92966 625.4886 50.62825V-5.27321C625.4886-8.57462 628.16488-11.25087 631.46627-11.25087H711.1925C714.49398-11.25087 717.17019-8.57462 717.17019-5.27321V50.62825C717.17019 53.92966 714.49398 56.60591 711.1925 56.60591ZM625.4886-11.25087"/>
<text xml:space="preserve" transform="matrix(.51073 0 -0 .51073 -26.681092 323.26414)" font-size="9.9626" font-family="CMSSBX10" font-weight="bold"><tspan y="-499.732" x="800.753 807.13906 812.2299 820.8675 826.7653 831.9359 835.642 840.8724">Temporal</tspan><tspan y="-487.777" x="800.829 810.5724 816.36068 821.94967 827.0405 829.59097 832.14138 837.73037">Modeling</tspan></text>
<text xml:space="preserve" transform="matrix(.51073 0 -0 .51073 -26.681092 323.26414)" font-size="9.9626" font-family="CMMI10" font-style="italic"><tspan y="-471.837" x="794.133">h</tspan></text>
<text xml:space="preserve" transform="matrix(.51073 0 -0 .51073 -26.681092 323.26414)" font-size="9.9626" font-family="CMR10"><tspan y="-471.837" x="804.4742">=</tspan></text>
<text xml:space="preserve" transform="matrix(.51073 0 -0 .51073 -26.681092 323.26414)" font-size="9.9626" font-family="CMEX10"><tspan y="-479.30903" x="816.834">&#xfffd;</tspan></text>
<text xml:space="preserve" transform="matrix(.51073 0 -0 .51073 -26.681092 323.26414)" font-size="6.9738" font-family="CMMI7" font-style="italic"><tspan y="-468.84803" x="827.35">t</tspan></text>
<text xml:space="preserve" transform="matrix(.51073 0 -0 .51073 -26.681092 323.26414)" font-size="9.9626" font-family="CMMI10" font-style="italic"><tspan y="-471.83705" x="832.519">&#x03b2;</tspan></text>
<text xml:space="preserve" transform="matrix(.51073 0 -0 .51073 -26.681092 323.26414)" font-size="6.9738" font-family="CMMI7" font-style="italic"><tspan y="-470.34205" x="838.154">t</tspan></text>
<text xml:space="preserve" transform="matrix(.51073 0 -0 .51073 -26.681092 323.26414)" font-size="9.9626" font-family="CMMI10" font-style="italic"><tspan y="-471.83705" x="841.661">f</tspan></text>
<text xml:space="preserve" transform="matrix(.51073 0 -0 .51073 -26.681092 323.26414)" font-size="6.9738" font-family="CMMI7" font-style="italic"><tspan y="-470.34205" x="846.539">t</tspan></text>
<text xml:space="preserve" transform="matrix(.51073 0 -0 .51073 -26.681092 323.26414)" font-size="9.9626" font-family="CMMI10" font-style="italic"><tspan y="-459.88105" x="810.319">&#x03b2;</tspan></text>
<text xml:space="preserve" transform="matrix(.51073 0 -0 .51073 -26.681092 323.26414)" font-size="6.9738" font-family="CMMI7" font-style="italic"><tspan y="-458.38706" x="815.954">t</tspan></text>
<text xml:space="preserve" transform="matrix(.51073 0 -0 .51073 -26.681092 323.26414)" font-size="9.9626" font-family="CMR10"><tspan y="-459.88105" x="826.112">=</tspan><tspan y="-447.92607" x="779.57 783.4953 788.4766 791.5252 795.40066 803.69949 808.6808 813.94107">softmax(</tspan></text>
<text xml:space="preserve" transform="matrix(.51073 0 -0 .51073 -26.681092 323.26414)" font-size="9.9626" font-family="CMMI10" font-style="italic"><tspan y="-447.92607" x="817.81649">v</tspan></text>
<text xml:space="preserve" transform="matrix(.51073 0 -0 .51073 -26.681092 323.26414)" font-size="6.9738" font-family="CMSY7" font-style="italic"><tspan y="-451.54206" x="823.002">&#x22a4;</tspan></text>
<text xml:space="preserve" transform="matrix(.51073 0 -0 .51073 -26.681092 323.26414)" font-size="9.9626" font-family="CMR10"><tspan y="-447.92607" x="831.388 835.2634 840.24478 845.78396 851.3231">tanh(</tspan></text>
<text xml:space="preserve" transform="matrix(.51073 0 -0 .51073 -26.681092 323.26414)" font-size="9.9626" font-family="CMMI10" font-style="italic"><tspan y="-447.92607" x="855.19857 863.0889">Uf</tspan></text>
<text xml:space="preserve" transform="matrix(.51073 0 -0 .51073 -26.681092 323.26414)" font-size="6.9738" font-family="CMMI7" font-style="italic"><tspan y="-446.43208" x="867.953">t</tspan></text>
<text xml:space="preserve" transform="matrix(.51073 0 -0 .51073 -26.681092 323.26414)" font-size="9.9626" font-family="CMR10"><tspan y="-447.92607" x="871.461 875.3364">))</tspan></text>
<path transform="matrix(.51073,0,0,-.51073,50.32116,91.7165)" d="M774.7628-6.5897C774.7628-7.13988 781.10836-7.58588 788.9362-7.58588 796.76406-7.58588 803.10958-7.13988 803.10958-6.5897V53.78085C803.10958 54.33102 796.76406 54.77702 788.9362 54.77702 781.10836 54.77702 774.7628 54.33102 774.7628 53.78085ZM774.7628 53.78085C774.7628 53.23068 781.10836 52.78468 788.9362 52.78468 796.76406 52.78468 803.10958 53.23068 803.10958 53.78085" fill="#cde9ce"/>
<path transform="matrix(.51073,0,0,-.51073,50.32116,91.7165)" stroke-width=".3985" stroke-linecap="butt" stroke-miterlimit="10" stroke-linejoin="miter" fill="none" stroke="#58975b" d="M774.7628-6.5897C774.7628-7.13988 781.10836-7.58588 788.9362-7.58588 796.76406-7.58588 803.10958-7.13988 803.10958-6.5897V53.78085C803.10958 54.33102 796.76406 54.77702 788.9362 54.77702 781.10836 54.77702 774.7628 54.33102 774.7628 53.78085ZM774.7628 53.78085C774.7628 53.23068 781.10836 52.78468 788.9362 52.78468 796.76406 52.78468 803.10958 53.23068 803.10958 53.78085"/>
<text xml:space="preserve" transform="matrix(.51073 0 -0 .51073 -26.681092 323.26414)" font-size="8.9664" font-family="CMSS9"><tspan y="-428.748" x="895.853 902.6585 907.4197 910.7462 915.5074 920.26858 926.6616 931.6918 935.7894 940.2188 943.54537 948.3065 951.45376 958.6269 964.5268 968.62448 972.7221 976.04867 980.39736">OutputFeatureVector</tspan></text>
<path transform="matrix(.51073,0,0,-.51073,50.32116,91.7165)" stroke-width="2.29143" stroke-linecap="butt" stroke-miterlimit="10" stroke-linejoin="miter" fill="none" stroke="#333333" d="M8.70338 22.67752H15.50635"/>
<path transform="matrix(.51073,0,0,-.51073,58.24072,80.13441)" d="M5.52994 0C4.85083 .17749 1.86572 1.18335 0 2.27794V-2.27794C1.86572-1.18335 4.85083-.17749 5.52994 0Z" fill="#333333"/>
<path transform="matrix(.51073,0,0,-.51073,58.24072,80.13441)" stroke-width="2.26768" stroke-linecap="butt" stroke-miterlimit="10" stroke-linejoin="miter" fill="none" stroke="#333333" d="M5.52994 0C4.85083 .17749 1.86572 1.18335 0 2.27794V-2.27794C1.86572-1.18335 4.85083-.17749 5.52994 0Z"/>
<path transform="matrix(.51073,0,0,-.51073,50.32116,91.7165)" stroke-width="2.29143" stroke-linecap="butt" stroke-miterlimit="10" stroke-linejoin="miter" fill="none" stroke="#333333" d="M118.78758 22.67752H165.27634"/>
<path transform="matrix(.51073,0,0,-.51073,134.73276,80.13441)" d="M5.52994 0C4.85083 .17749 1.86572 1.18335 0 2.27794V-2.27794C1.86572-1.18335 4.85083-.17749 5.52994 0Z" fill="#333333"/>
<path transform="matrix(.51073,0,0,-.51073,134.73276,80.13441)" stroke-width="2.26768" stroke-linecap="butt" stroke-miterlimit="10" stroke-linejoin="miter" fill="none" stroke="#333333" d="M5.52994 0C4.85083 .17749 1.86572 1.18335 0 2.27794V-2.27794C1.86572-1.18335 4.85083-.17749 5.52994 0Z"/>
<path transform="matrix(.51073,0,0,-.51073,50.32116,91.7165)" stroke-width="2.29143" stroke-linecap="butt" stroke-miterlimit="10" stroke-linejoin="miter" fill="none" stroke="#333333" d="M268.5576 22.67752H315.04634"/>
<path transform="matrix(.51073,0,0,-.51073,211.2248,80.13441)" d="M5.52994 0C4.85083 .17749 1.86572 1.18335 0 2.27794V-2.27794C1.86572-1.18335 4.85083-.17749 5.52994 0Z" fill="#333333"/>
<path transform="matrix(.51073,0,0,-.51073,211.2248,80.13441)" stroke-width="2.26768" stroke-linecap="butt" stroke-miterlimit="10" stroke-linejoin="miter" fill="none" stroke="#333333" d="M5.52994 0C4.85083 .17749 1.86572 1.18335 0 2.27794V-2.27794C1.86572-1.18335 4.85083-.17749 5.52994 0Z"/>
<path transform="matrix(.51073,0,0,-.51073,50.32116,91.7165)" stroke-width="2.29143" stroke-linecap="butt" stroke-miterlimit="10" stroke-linejoin="miter" fill="none" stroke="#333333" d="M418.32759 22.67752H464.81636"/>
<path transform="matrix(.51073,0,0,-.51073,287.71684,80.13441)" d="M5.52994 0C4.85083 .17749 1.86572 1.18335 0 2.27794V-2.27794C1.86572-1.18335 4.85083-.17749 5.52994 0Z" fill="#333333"/>
<path transform="matrix(.51073,0,0,-.51073,287.71684,80.13441)" stroke-width="2.26768" stroke-linecap="butt" stroke-miterlimit="10" stroke-linejoin="miter" fill="none" stroke="#333333" d="M5.52994 0C4.85083 .17749 1.86572 1.18335 0 2.27794V-2.27794C1.86572-1.18335 4.85083-.17749 5.52994 0Z"/>
<path transform="matrix(.51073,0,0,-.51073,50.32116,91.7165)" stroke-width="2.29143" stroke-linecap="butt" stroke-miterlimit="10" stroke-linejoin="miter" fill="none" stroke="#333333" d="M568.0976 22.67752H614.5863"/>
<path transform="matrix(.51073,0,0,-.51073,364.20887,80.13441)" d="M5.52994 0C4.85083 .17749 1.86572 1.18335 0 2.27794V-2.27794C1.86572-1.18335 4.85083-.17749 5.52994 0Z" fill="#333333"/>
<path transform="matrix(.51073,0,0,-.51073,364.20887,80.13441)" stroke-width="2.26768" stroke-linecap="butt" stroke-miterlimit="10" stroke-linejoin="miter" fill="none" stroke="#333333" d="M5.52994 0C4.85083 .17749 1.86572 1.18335 0 2.27794V-2.27794C1.86572-1.18335 4.85083-.17749 5.52994 0Z"/>
<path transform="matrix(.51073,0,0,-.51073,50.32116,91.7165)" stroke-width="2.29143" stroke-linecap="butt" stroke-miterlimit="10" stroke-linejoin="miter" fill="none" stroke="#333333" d="M717.86758 22.67752H764.3563"/>
<path transform="matrix(.51073,0,0,-.51073,440.7009,80.13441)" d="M5.52994 0C4.85083 .17749 1.86572 1.18335 0 2.27794V-2.27794C1.86572-1.18335 4.85083-.17749 5.52994 0Z" fill="#333333"/>
<path transform="matrix(.51073,0,0,-.51073,440.7009,80.13441)" stroke-width="2.26768" stroke-linecap="butt" stroke-miterlimit="10" stroke-linejoin="miter" fill="none" stroke="#333333" d="M5.52994 0C4.85083 .17749 1.86572 1.18335 0 2.27794V-2.27794C1.86572-1.18335 4.85083-.17749 5.52994 0Z"/>
<path transform="matrix(.51073,0,0,-.51073,50.82999,92.22533)" d="M410.32453-63.20352H333.2543C331.05335-63.20352 329.26918-64.98769 329.26918-67.18863V-106.70691C329.26918-108.90785 331.05335-110.69202 333.2543-110.69202H410.32453C412.52546-110.69202 414.30964-108.90785 414.30964-106.70691V-67.18863C414.30964-64.98769 412.52546-63.20352 410.32453-63.20352ZM329.26918-110.69202" fill="#82b184" fill-opacity=".3"/>
<path transform="matrix(.51073,0,0,-.51073,50.32116,91.7165)" d="M410.32453-63.20352H333.2543C331.05335-63.20352 329.26918-64.98769 329.26918-67.18863V-106.70691C329.26918-108.90785 331.05335-110.69202 333.2543-110.69202H410.32453C412.52546-110.69202 414.30964-108.90785 414.30964-106.70691V-67.18863C414.30964-64.98769 412.52546-63.20352 410.32453-63.20352ZM329.26918-110.69202" fill="#d5e5d6"/>
<path transform="matrix(.51073,0,0,-.51073,50.32116,91.7165)" stroke-width=".3985" stroke-linecap="butt" stroke-miterlimit="10" stroke-linejoin="miter" fill="none" stroke="#58975b" d="M410.32453-63.20352H333.2543C331.05335-63.20352 329.26918-64.98769 329.26918-67.18863V-106.70691C329.26918-108.90785 331.05335-110.69202 333.2543-110.69202H410.32453C412.52546-110.69202 414.30964-108.90785 414.30964-106.70691V-67.18863C414.30964-64.98769 412.52546-63.20352 410.32453-63.20352ZM329.26918-110.69202"/>
<text xml:space="preserve" transform="matrix(.51073 0 -0 .51073 -26.681107 323.2641)" font-size="8.9664" font-family="CMSSBX10" font-weight="bold"><tspan y="-380.616" x="497.531 503.0095 505.3049 510.23643 518.0103 522.94186 525.23727 533.3339 539.9153 544.2909">SigmoidAc-</tspan><tspan y="-369.65699" x="507.062 510.68446 512.97988 517.4631 522.1704 525.79287 528.08828 533.0198">tivation</tspan></text>
<text xml:space="preserve" transform="matrix(.51073 0 -0 .51073 -26.681107 323.2641)" font-size="8.9664" font-family="CMSS9"><tspan y="-358.698" x="496.271 501.29219 504.4394 508.8688 516.19436 523.3585 525.9319 533.2485 538.26968 542.61837 545.76559">FrameImpor-</tspan><tspan y="-347.739" x="491.155 494.48155 498.91096 503.67213 507.76979 514.94296 523.39828 527.4959 529.6927 534.3014 539.06259 542.3891 544.5859 549.34707">tanceWeighting</tspan></text>
<path transform="matrix(.51073,0,0,-.51073,50.32116,91.7165)" stroke-width="1.59404" stroke-linecap="butt" stroke-miterlimit="10" stroke-linejoin="miter" fill="none" stroke="#333333" d="M371.7894-17.64919V-52.46259"/>
<path transform="matrix(0,.51073,.51073,0,240.20517,118.51072)" d="M7.25551 0C6.3645 .22319 2.4479 1.48798 0 2.86435V-2.86435C2.4479-1.48798 6.3645-.22319 7.25551 0Z" fill="#333333"/>
<path transform="matrix(0,.51073,.51073,0,240.20517,118.51072)" stroke-width="1.59404" stroke-linecap="butt" stroke-miterlimit="10" stroke-linejoin="miter" fill="none" stroke="#333333" d="M7.25551 0C6.3645 .22319 2.4479 1.48798 0 2.86435V-2.86435C2.4479-1.48798 6.3645-.22319 7.25551 0Z"/>
<path transform="matrix(.51073,0,0,-.51073,50.82999,92.22533)" d="M560.0945-63.72935H483.0243C480.82334-63.72935 479.03919-65.51352 479.03919-67.71446V-107.23274C479.03919-109.43369 480.82334-111.21785 483.0243-111.21785H560.0945C562.2955-111.21785 564.0796-109.43369 564.0796-107.23274V-67.71446C564.0796-65.51352 562.2955-63.72935 560.0945-63.72935ZM479.03919-111.21785" fill="#b079c7" fill-opacity=".3"/>
<path transform="matrix(.51073,0,0,-.51073,50.32116,91.7165)" d="M560.0945-63.72935H483.0243C480.82334-63.72935 479.03919-65.51352 479.03919-67.71446V-107.23274C479.03919-109.43369 480.82334-111.21785 483.0243-111.21785H560.0945C562.2955-111.21785 564.0796-109.43369 564.0796-107.23274V-67.71446C564.0796-65.51352 562.2955-63.72935 560.0945-63.72935ZM479.03919-111.21785" fill="#e5d2ec"/>
<path transform="matrix(.51073,0,0,-.51073,50.32116,91.7165)" stroke-width=".3985" stroke-linecap="butt" stroke-miterlimit="10" stroke-linejoin="miter" fill="none" stroke="#954cb5" d="M560.0945-63.72935H483.0243C480.82334-63.72935 479.03919-65.51352 479.03919-67.71446V-107.23274C479.03919-109.43369 480.82334-111.21785 483.0243-111.21785H560.0945C562.2955-111.21785 564.0796-109.43369 564.0796-107.23274V-67.71446C564.0796-65.51352 562.2955-63.72935 560.0945-63.72935ZM479.03919-111.21785"/>
<text xml:space="preserve" transform="matrix(.51073 0 -0 .51073 -26.681092 323.2641)" font-size="8.9664" font-family="CMSSBX10" font-weight="bold"><tspan y="-380.09" x="652.72 657.92947 662.5113 666.9407 670.2762 675.30636 680.0137 685.0438 687.33926">Learnable</tspan><tspan y="-369.13099" x="649.378 658.41616 662.998 665.2934 670.2249 675.25509 678.8775">Weights</tspan></text>
<text xml:space="preserve" transform="matrix(.51073 0 -0 .51073 -26.681092 323.2641)" font-size="8.9664" font-family="CMMI9" font-style="italic"><tspan y="-369.13099" x="685.7368">&#x03bb;</tspan></text>
<text xml:space="preserve" transform="matrix(.51073 0 -0 .51073 -26.681092 323.2641)" font-size="5.9776" font-family="CMMI6" font-style="italic"><tspan y="-368.13499" x="691.108">r</tspan></text>
<text xml:space="preserve" transform="matrix(.51073 0 -0 .51073 -26.681092 323.2641)" font-size="8.9664" font-family="CMSS9"><tspan y="-358.17198" x="657.665 663.6366 667.73428 672.34298 674.53976 679.14846 683.9096">Region-</tspan><tspan y="-347.21296" x="647.701 651.23379 656.246 660.3436 664.4413 666.63809 669.1083 671.57858 678.7517 684.8937 691.0536">specificGAP</tspan></text>
<path transform="matrix(.51073,0,0,-.51073,50.32116,91.7165)" stroke-width="1.59404" stroke-linecap="butt" stroke-miterlimit="10" stroke-linejoin="miter" fill="none" stroke="#333333" d="M521.5594-18.17502V-52.98842"/>
<path transform="matrix(0,.51073,.51073,0,316.6972,118.779277)" d="M7.25551 0C6.3645 .22319 2.4479 1.48798 0 2.86435V-2.86435C2.4479-1.48798 6.3645-.22319 7.25551 0Z" fill="#333333"/>
<path transform="matrix(0,.51073,.51073,0,316.6972,118.779277)" stroke-width="1.59404" stroke-linecap="butt" stroke-miterlimit="10" stroke-linejoin="miter" fill="none" stroke="#333333" d="M7.25551 0C6.3645 .22319 2.4479 1.48798 0 2.86435V-2.86435C2.4479-1.48798 6.3645-.22319 7.25551 0Z"/>
<path transform="matrix(.51073,0,0,-.51073,50.82999,92.22533)" d="M709.8645-57.5026H632.79428C630.5933-57.5026 628.80917-59.28676 628.80917-61.4877V-90.04694C628.80917-92.24788 630.5933-94.03204 632.79428-94.03204H709.8645C712.0654-94.03204 713.8496-92.24788 713.8496-90.04694V-61.4877C713.8496-59.28676 712.0654-57.5026 709.8645-57.5026ZM628.80917-94.03204" fill="#f0b27a" fill-opacity=".3"/>
<path transform="matrix(.51073,0,0,-.51073,50.32116,91.7165)" d="M709.8645-57.5026H632.79428C630.5933-57.5026 628.80917-59.28676 628.80917-61.4877V-90.04694C628.80917-92.24788 630.5933-94.03204 632.79428-94.03204H709.8645C712.0654-94.03204 713.8496-92.24788 713.8496-90.04694V-61.4877C713.8496-59.28676 712.0654-57.5026 709.8645-57.5026ZM628.80917-94.03204" fill="#fae5d3"/>
<path transform="matrix(.51073,0,0,-.51073,50.32116,91.7165)" stroke-width=".3985" stroke-linecap="butt" stroke-miterlimit="10" stroke-linejoin="miter" fill="none" stroke="#eb984e" d="M709.8645-57.5026H632.79428C630.5933-57.5026 628.80917-59.28676 628.80917-61.4877V-90.04694C628.80917-92.24788 630.5933-94.03204 632.79428-94.03204H709.8645C712.0654-94.03204 713.8496-92.24788 713.8496-90.04694V-61.4877C713.8496-59.28676 712.0654-57.5026 709.8645-57.5026ZM628.80917-94.03204"/>
<text xml:space="preserve" transform="matrix(.51073 0 -0 .51073 -26.681122 323.2641)" font-size="8.9664" font-family="CMSSBX10" font-weight="bold"><tspan y="-386.317" x="794.745 800.4925 805.07437 812.8482 818.1563 822.8099 826.1454 830.8527 836.22366 842.51809 846.1405">TemporalAt-</tspan><tspan y="-375.35798" x="789.355 792.9774 797.55929 802.5894 806.21188 808.50729 813.4388 821.53549 830.5826 835.1644 837.45986 842.39138 847.4215 851.04397">tentionWeights</tspan></text>
<text xml:space="preserve" transform="matrix(.51073 0 -0 .51073 -26.681122 323.2641)" font-size="8.9664" font-family="CMMI9" font-style="italic"><tspan y="-364.399" x="787.18099">&#x03b2;</tspan></text>
<text xml:space="preserve" transform="matrix(.51073 0 -0 .51073 -26.681122 323.2641)" font-size="5.9776" font-family="CMMI6" font-style="italic"><tspan y="-363.40299" x="792.37399">t</tspan></text>
<text xml:space="preserve" transform="matrix(.51073 0 -0 .51073 -26.681122 323.2641)" font-size="8.9664" font-family="CMSS9"><tspan y="-364.399" x="798.79397 801.6094 805.96707 812.1808 816.61019 821.2189 825.8276 828.9748 833.07247 837.68118 842.11056 845.4371 847.63388 852.24258">foraggregation</tspan></text>
<path transform="matrix(.51073,0,0,-.51073,50.32116,91.7165)" stroke-width="1.59404" stroke-linecap="butt" stroke-miterlimit="10" stroke-linejoin="miter" fill="none" stroke="#333333" d="M671.3294-11.94826V-46.76166"/>
<path transform="matrix(0,.51073,.51073,0,393.18925,115.59908)" d="M7.25551 0C6.3645 .22319 2.4479 1.48798 0 2.86435V-2.86435C2.4479-1.48798 6.3645-.22319 7.25551 0Z" fill="#333333"/>
<path transform="matrix(0,.51073,.51073,0,393.18925,115.59908)" stroke-width="1.59404" stroke-linecap="butt" stroke-miterlimit="10" stroke-linejoin="miter" fill="none" stroke="#333333" d="M7.25551 0C6.3645 .22319 2.4479 1.48798 0 2.86435V-2.86435C2.4479-1.48798 6.3645-.22319 7.25551 0Z"/>
<path transform="matrix(.51073,0,0,-.51073,50.32116,91.7165)" d="M299.30863 150.35076H144.73018C142.52924 150.35076 140.74507 148.56659 140.74507 146.36565V126.7729C140.74507 124.57196 142.52924 122.7878 144.73018 122.7878H299.30863C301.50956 122.7878 303.29374 124.57196 303.29374 126.7729V146.36565C303.29374 148.56659 301.50956 150.35076 299.30863 150.35076ZM140.74507 122.7878" fill="#ffffff"/>
<path transform="matrix(.51073,0,0,-.51073,50.32116,91.7165)" stroke-width=".3985" stroke-linecap="butt" stroke-miterlimit="10" stroke-linejoin="miter" fill="none" stroke="#4c4d4c" d="M299.30863 150.35076H144.73018C142.52924 150.35076 140.74507 148.56659 140.74507 146.36565V126.7729C140.74507 124.57196 142.52924 122.7878 144.73018 122.7878H299.30863C301.50956 122.7878 303.29374 124.57196 303.29374 126.7729V146.36565C303.29374 148.56659 301.50956 150.35076 299.30863 150.35076ZM140.74507 122.7878"/>
<text xml:space="preserve" transform="matrix(.51073 0 -0 .51073 -26.681092 323.26414)" font-size="8.9664" font-family="CMSSBX10" font-weight="bold"><tspan y="-594.168" x="294.833 300.03355 304.61537 309.32273 312.94517 317.9753 321.31083 328.9681 334.72456 339.20777 342.8302 346.1657 350.87309 355.25767 358.8801 361.1755 366.10704 371.13719">FeatureExtraction:</tspan></text>
<text xml:space="preserve" transform="matrix(.51073 0 -0 .51073 -26.681092 323.26414)" font-size="8.9664" font-family="CMMI9" font-style="italic"><tspan y="-581.216" x="294.833">&#x03d5;</tspan></text>
<text xml:space="preserve" transform="matrix(.51073 0 -0 .51073 -26.681092 323.26414)" font-size="8.9664" font-family="CMR9"><tspan y="-581.216" x="302.88484">:</tspan></text>
<text xml:space="preserve" transform="matrix(.51073 0 -0 .51073 -26.681092 323.26414)" font-size="8.9664" font-family="MSBM10"><tspan y="-581.216" x="308.00465">R</tspan></text>
<text xml:space="preserve" transform="matrix(.51073 0 -0 .51073 -26.681092 323.26414)" font-size="5.9776" font-family="CMMI6" font-style="italic"><tspan y="-585.025" x="314.47303">H</tspan></text>
<text xml:space="preserve" transform="matrix(.51073 0 -0 .51073 -26.681092 323.26414)" font-size="5.9776" font-family="CMSY6" font-style="italic"><tspan y="-585.025" x="320.9049">&#x00d7;</tspan></text>
<text xml:space="preserve" transform="matrix(.51073 0 -0 .51073 -26.681092 323.26414)" font-size="5.9776" font-family="CMMI6" font-style="italic"><tspan y="-585.025" x="326.65538">W</tspan></text>
<text xml:space="preserve" transform="matrix(.51073 0 -0 .51073 -26.681092 323.26414)" font-size="5.9776" font-family="CMSY6" font-style="italic"><tspan y="-585.025" x="334.50993">&#x00d7;</tspan></text>
<text xml:space="preserve" transform="matrix(.51073 0 -0 .51073 -26.681092 323.26414)" font-size="5.9776" font-family="CMR6"><tspan y="-585.025" x="340.26039">3</tspan></text>
<text xml:space="preserve" transform="matrix(.51073 0 -0 .51073 -26.681092 323.26414)" font-size="8.9664" font-family="CMSY9" font-style="italic"><tspan y="-581.216" x="346.97004">&#x2192;</tspan></text>
<text xml:space="preserve" transform="matrix(.51073 0 -0 .51073 -26.681092 323.26414)" font-size="8.9664" font-family="MSBM10"><tspan y="-581.216" x="358.7519">R</tspan></text>
<text xml:space="preserve" transform="matrix(.51073 0 -0 .51073 -26.681092 323.26414)" font-size="5.9776" font-family="CMR6"><tspan y="-585.025" x="365.22105 368.87336 372.52568 376.17799">2048</tspan></text>
<path transform="matrix(.51073,0,0,-.51073,50.32116,91.7165)" stroke-width=".79701" stroke-linecap="butt" stroke-dasharray="2.98883,2.98883" stroke-miterlimit="10" stroke-linejoin="miter" fill="none" stroke="#4c4d4c" d="M222.0194 122.58855V54.55635"/>
<path transform="matrix(.51073,0,0,-.51073,50.32116,91.7165)" d="M477.4254 159.29677H322.847C320.64604 159.29677 318.86189 157.5126 318.86189 155.31166V135.22078C318.86189 133.01984 320.64604 131.23567 322.847 131.23567H477.4254C479.62638 131.23567 481.41053 133.01984 481.41053 135.22078V155.31166C481.41053 157.5126 479.62638 159.29677 477.4254 159.29677ZM318.86189 131.23567" fill="#ffffff"/>
<path transform="matrix(.51073,0,0,-.51073,50.32116,91.7165)" stroke-width=".3985" stroke-linecap="butt" stroke-miterlimit="10" stroke-linejoin="miter" fill="none" stroke="#4c4d4c" d="M477.4254 159.29677H322.847C320.64604 159.29677 318.86189 157.5126 318.86189 155.31166V135.22078C318.86189 133.01984 320.64604 131.23567 322.847 131.23567H477.4254C479.62638 131.23567 481.41053 133.01984 481.41053 135.22078V155.31166C481.41053 157.5126 479.62638 159.29677 477.4254 159.29677ZM318.86189 131.23567"/>
<text xml:space="preserve" transform="matrix(.51073 0 -0 .51073 -26.681077 323.2641)" font-size="8.9664" font-family="CMSSBX10" font-weight="bold"><tspan y="-603.113" x="472.948 479.2424 482.86485 486.48728 491.0691 496.09925 499.72169 502.0171 506.9486 515.05429 523.8234 528.4053 532.78988 537.82 542.52737 547.5575 549.8529 553.6367 561.4106">AttentionMechanism:</tspan></text>
<text xml:space="preserve" transform="matrix(.51073 0 -0 .51073 -26.681077 323.2641)" font-size="8.9664" font-family="CMMI9" font-style="italic"><tspan y="-590.162" x="472.948">&#x03b1;</tspan></text>
<text xml:space="preserve" transform="matrix(.51073 0 -0 .51073 -26.681077 323.2641)" font-size="5.9776" font-family="CMMI6" font-style="italic"><tspan y="-589.166" x="478.853">t</tspan></text>
<text xml:space="preserve" transform="matrix(.51073 0 -0 .51073 -26.681077 323.2641)" font-size="8.9664" font-family="CMR9"><tspan y="-590.162" x="484.762">=</tspan></text>
<text xml:space="preserve" transform="matrix(.51073 0 -0 .51073 -26.681077 323.2641)" font-size="8.9664" font-family="CMMI9" font-style="italic"><tspan y="-590.162" x="494.48158">&#x03c3;</tspan></text>
<text xml:space="preserve" transform="matrix(.51073 0 -0 .51073 -26.681077 323.2641)" font-size="8.9664" font-family="CMR9"><tspan y="-590.162" x="500.0766">(</tspan></text>
<text xml:space="preserve" transform="matrix(.51073 0 -0 .51073 -26.681077 323.2641)" font-size="8.9664" font-family="CMMI9" font-style="italic"><tspan y="-590.162" x="503.66316">w</tspan></text>
<text xml:space="preserve" transform="matrix(.51073 0 -0 .51073 -26.681077 323.2641)" font-size="5.9776" font-family="CMSY6" font-style="italic"><tspan y="-593.971" x="510.50999">&#x22a4;</tspan></text>
<text xml:space="preserve" transform="matrix(.51073 0 -0 .51073 -26.681077 323.2641)" font-size="8.9664" font-family="CMR9"><tspan y="-590.162" x="518.3 521.88656 526.49526 531.61508 536.73489">tanh(</tspan></text>
<text xml:space="preserve" transform="matrix(.51073 0 -0 .51073 -26.681077 323.2641)" font-size="8.9664" font-family="CMMI9" font-style="italic"><tspan y="-590.162" x="540.3214 550.30996">Wf</tspan></text>
<text xml:space="preserve" transform="matrix(.51073 0 -0 .51073 -26.681077 323.2641)" font-size="5.9776" font-family="CMMI6" font-style="italic"><tspan y="-589.166" x="554.769">t</tspan></text>
<text xml:space="preserve" transform="matrix(.51073 0 -0 .51073 -26.681077 323.2641)" font-size="8.9664" font-family="CMR9"><tspan y="-590.162" x="560.16598">+</tspan></text>
<text xml:space="preserve" transform="matrix(.51073 0 -0 .51073 -26.681077 323.2641)" font-size="8.9664" font-family="CMMI9" font-style="italic"><tspan y="-590.162" x="569.3744">b</tspan></text>
<text xml:space="preserve" transform="matrix(.51073 0 -0 .51073 -26.681077 323.2641)" font-size="8.9664" font-family="CMR9"><tspan y="-590.162" x="573.3196 576.9061">))</tspan></text>
<path transform="matrix(.51073,0,0,-.51073,50.32116,91.7165)" stroke-width=".79701" stroke-linecap="butt" stroke-dasharray="2.98883,2.98883" stroke-miterlimit="10" stroke-linejoin="miter" fill="none" stroke="#4c4d4c" d="M400.1362 131.03643 371.7894 63.00423"/>
<path transform="matrix(.51073,0,0,-.51073,50.32116,91.7165)" d="M757.12277 154.09401H602.5443C600.3433 154.09401 598.5592 152.30985 598.5592 150.1089V129.51987C598.5592 127.31892 600.3433 125.53476 602.5443 125.53476H757.12277C759.32369 125.53476 761.10787 127.31892 761.10787 129.51987V150.1089C761.10787 152.30985 759.32369 154.09401 757.12277 154.09401ZM598.5592 125.53476" fill="#ffffff"/>
<path transform="matrix(.51073,0,0,-.51073,50.32116,91.7165)" stroke-width=".3985" stroke-linecap="butt" stroke-miterlimit="10" stroke-linejoin="miter" fill="none" stroke="#4c4d4c" d="M757.12277 154.09401H602.5443C600.3433 154.09401 598.5592 152.30985 598.5592 150.1089V129.51987C598.5592 127.31892 600.3433 125.53476 602.5443 125.53476H757.12277C759.32369 125.53476 761.10787 127.31892 761.10787 129.51987V150.1089C761.10787 152.30985 759.32369 154.09401 757.12277 154.09401ZM598.5592 125.53476"/>
<text xml:space="preserve" transform="matrix(.51073 0 -0 .51073 -26.681092 323.26414)" font-size="8.9664" font-family="CMSSBX10" font-weight="bold"><tspan y="-597.911" x="752.641 758.11947 760.41488 765.445 770.15237 775.52328 781.8177 786.4085 791.1607 794.4962 799.07809 802.8619 807.4437 812.4739 816.0963 820.80368 824.4261 826.7215 831.653 836.68319">FinalRepresentation:</tspan></text>
<text xml:space="preserve" transform="matrix(.51073 0 -0 .51073 -26.681092 323.26414)" font-size="8.9664" font-family="CMMI9" font-style="italic"><tspan y="-584.959" x="752.641">h</tspan></text>
<text xml:space="preserve" transform="matrix(.51073 0 -0 .51073 -26.681092 323.26414)" font-size="8.9664" font-family="CMR9"><tspan y="-584.959" x="760.5135">=</tspan></text>
<text xml:space="preserve" transform="matrix(.51073 0 -0 .51073 -26.681092 323.26414)" font-size="8.9664" font-family="CMEX9"><tspan y="-591.68399" x="770.238">&#xfffd;</tspan></text>
<text xml:space="preserve" transform="matrix(.51073 0 -0 .51073 -26.681092 323.26414)" font-size="5.9776" font-family="CMMI6" font-style="italic"><tspan y="-589.22097" x="779.966">T</tspan><tspan y="-582.21896" x="779.966">t</tspan></text>
<text xml:space="preserve" transform="matrix(.51073 0 -0 .51073 -26.681092 323.26414)" font-size="5.9776" font-family="CMR6"><tspan y="-582.21896" x="782.8173 788.4064">=1</tspan></text>
<text xml:space="preserve" transform="matrix(.51073 0 -0 .51073 -26.681092 323.26414)" font-size="8.9664" font-family="CMMI9" font-style="italic"><tspan y="-584.9589" x="794.093">&#x03b2;</tspan></text>
<text xml:space="preserve" transform="matrix(.51073 0 -0 .51073 -26.681092 323.26414)" font-size="5.9776" font-family="CMMI6" font-style="italic"><tspan y="-583.96298" x="799.286">t</tspan></text>
<text xml:space="preserve" transform="matrix(.51073 0 -0 .51073 -26.681092 323.26414)" font-size="8.9664" font-family="CMEX9"><tspan y="-591.68399" x="804.171">&#xfffd;</tspan></text>
<text xml:space="preserve" transform="matrix(.51073 0 -0 .51073 -26.681092 323.26414)" font-size="5.9776" font-family="CMMI6" font-style="italic"><tspan y="-589.22097" x="813.898">R</tspan><tspan y="-582.21896" x="813.898">r</tspan></text>
<text xml:space="preserve" transform="matrix(.51073 0 -0 .51073 -26.681092 323.26414)" font-size="5.9776" font-family="CMR6"><tspan y="-582.21896" x="817.5563 823.1453">=1</tspan></text>
<text xml:space="preserve" transform="matrix(.51073 0 -0 .51073 -26.681092 323.26414)" font-size="8.9664" font-family="CMMI9" font-style="italic"><tspan y="-584.9589" x="828.835">&#x03bb;</tspan></text>
<text xml:space="preserve" transform="matrix(.51073 0 -0 .51073 -26.681092 323.26414)" font-size="5.9776" font-family="CMMI6" font-style="italic"><tspan y="-583.96298" x="834.211">r</tspan></text>
<text xml:space="preserve" transform="matrix(.51073 0 -0 .51073 -26.681092 323.26414)" font-size="8.9664" font-family="CMMI9" font-style="italic"><tspan y="-584.9589" x="838.369">f</tspan></text>
<text xml:space="preserve" transform="matrix(.51073 0 -0 .51073 -26.681092 323.26414)" font-size="5.9776" font-family="CMMI6" font-style="italic"><tspan y="-583.96298" x="842.84207 845.69338 847.96487">t,r</tspan></text>
<path transform="matrix(.51073,0,0,-.51073,50.32116,91.7165)" stroke-width=".79701" stroke-linecap="butt" stroke-dasharray="2.98883,2.98883" stroke-miterlimit="10" stroke-linejoin="miter" fill="none" stroke="#4c4d4c" d="M679.8335 125.3355 671.3294 57.3033"/>
<text xml:space="preserve" transform="matrix(1 0 -0 1 -61.91 490.57)" font-size="9.9626" font-family="CMR10"><tspan y="-320.032" x="72 78.50558 81.27518 86.25648 91.795688 95.70103 104.13935 109.12065 117.71837 125.46927 130.46053 134.88393 138.78926 143.77056 146.54016 153.32469 158.30599 162.21132 166.35578 171.89498 174.66458 178.54004 182.96344 187.38684 191.2623 196.8015 200.70684 209.15512 212.20368 217.18497 225.10523 229.52863 234.78888 240.32808 244.23342 248.65682 252.58208 256.50736 259.27696 264.26823 272.70655 275.7551 279.66044 284.64173 292.94059 301.3889 305.31416 309.73756 312.50715 316.93055 321.35395 325.2294 327.999 332.9803 342.5444 347.5257 353.05497 362.61909 366.49455 370.91795 379.2168 385.03498 390.01628 393.9216 398.9029 405.6874 413.98628 419.24653 424.78575 429.20915 431.97874 434.74833 440.28755 449.29374 456.48674 459.25633 463.13179 472.6859 477.1093 482.64854 488.18775 493.16905 498.70826 503.13166 507.55506 517.11917 521.0245 525.4479 530.4292 535.9684">Figure1:Overallarchitectureforexpressiveframeselectionandtemporalmodelingwithenhancedread-</tspan><tspan y="-308.07704" x="72 76.9813 82.52051 85.29011 88.05971 90.82931 94.425807 103.0036 106.052158 111.033458 118.266307 123.80551 127.71085 130.48046 135.7407 139.61617">abilityforprint.</tspan></text>
<text xml:space="preserve" transform="matrix(1 0 -0 1 -61.91 490.57)" font-size="9.9626" font-family="CMR10"><tspan y="-89.36502" x="303.133">1</tspan></text>
<g clip-path="url(#clip_0)">
<g>
<path transform="matrix(1,0,0,-1,-61.91,490.57)" d="M62.41 331.401H546.95V490.07H62.41Z" fill="#ffffff" fill-opacity=".1" fill-rule="evenodd"/>
<path transform="matrix(1,0,0,-1,-61.91,490.57)" stroke-width="1" stroke-linecap="butt" stroke-miterlimit="10" stroke-linejoin="miter" fill="none" stroke="#00a5e4" stroke-opacity=".1" d="M62.41 331.401H546.95V490.07H62.41Z"/>
</g>
</g>
</svg>
